<?xml version="1.0" standalone="no"?> <!DOCTYPE svg PUBLIC "-//W3C//DTD SVG 1.0//EN" "http://www.w3.org/TR/2001/REC-SVG-20010904/DTD/svg10.dtd" > <svg xmlns="http://www.w3.org/2000/svg" width="100%" height="100%">
<defs >
<font id="flamablack" horiz-adv-x="497" ><font-face
    font-family="Flama-Black"
    units-per-em="1000"
    panose-1="2 0 0 0 0 0 0 0 0 0"
    ascent="950"
    descent="-250"
    alphabetic="0" />
<missing-glyph horiz-adv-x="822" d="M235 118L195 158L380 343L195 528L235 568L420 383L605 568L645 528L460 343L645 158L605 118L420 303L235 118ZM55 -18V698H767V-18H55ZM115 42H707V638H115V42Z" />
<glyph unicode=" " glyph-name="space" horiz-adv-x="200" />
<glyph unicode="!" glyph-name="exclam" horiz-adv-x="322" d="M101 241L53 456V713H269V456L221 241H101ZM58 0V194H264V0H58Z" />
<glyph unicode="&quot;" glyph-name="quotedbl" horiz-adv-x="518" d="M88 378L64 561V713H227V561L203 378H88ZM315 378L291 561V713H454V561L430 378H315Z" />
<glyph unicode="#" glyph-name="numbersign" horiz-adv-x="637" d="M119 -1L143 163H25L43 276H157L183 453H61L78 564H195L217 715H317L299 564H413L433 715H534L513 564H627L613 453H499L475 276H593L579 163H458L437 -1H336L357 163H243L219 -1H119ZM259 276H372L398
453H283L259 276Z" />
<glyph unicode="$" glyph-name="dollar" horiz-adv-x="595" d="M243 -41V25Q114 35 25 96L120 237Q209 173 286 173Q356 173 356 206Q356 230 321 242L195 277Q127 297 87 342T47 455Q47 533 100 592T243 668V736H381V669Q483 657 543 614L448 473Q423 494 383
506T312 519Q246 519 246 485Q246 481 247 478T249 471T254 466T260 463T267 459T274 457T281 455T289 452L411 418Q488 396 528 351T568 242Q568 154 515 102T381 32V-41H243Z" />
<glyph unicode="%" glyph-name="percent" horiz-adv-x="884" d="M200 317Q133 317 83 348T32 448V592Q32 660 81 692T197 725T314 692T365 589V448Q365 382 315 350T200 317ZM199 418Q216 418 225 427T234 450V596Q234 608 224 616T198 624Q181 624 172 616T163
596V448Q163 436 172 427T199 418ZM687 -10Q620 -10 570 21T519 121V265Q519 333 568 365T685 397T802 364T852 262V121Q852 55 802 23T687 -10ZM686 91Q703 91 712 100T721 123V269Q721 281 712 289T686 297Q669 297 660 289T650 269V121Q650 109 659 100T686
91ZM163 0L621 717H725L267 0H163Z" />
<glyph unicode="&amp;" glyph-name="ampersand" horiz-adv-x="843" d="M291 -18Q183 -18 107 39T31 197Q31 270 83 320T206 394Q180 420 159 457T138 525Q138 620 207 672T409 725Q513 725 577 678T641 550Q641 427 502 374L580 285Q582 292 595 363L768 347Q753
242 692 167L844 -1H566L520 49Q425 -18 291 -18ZM339 130Q388 130 422 158L292 303Q249 274 249 213Q249 179 272 155T339 130ZM426 458Q448 470 463 494T478 547Q478 565 462 579T425 593Q370 593 370 544Q370 523 408 479L426 458Z" />
<glyph unicode="&apos;" glyph-name="quotesingle" horiz-adv-x="291" d="M88 378L64 561V713H227V561L203 378H88Z" />
<glyph unicode="(" glyph-name="parenleft" horiz-adv-x="346" d="M228 -181Q159 -98 116 24T73 277Q73 399 115 517T228 720L314 718Q264 594 245 499T225 277Q225 36 314 -179L228 -181Z" />
<glyph unicode=")" glyph-name="parenright" horiz-adv-x="346" d="M118 -181L32 -179Q121 36 121 277Q121 403 102 498T32 718L118 720Q189 636 231 518T273 277Q273 147 230 25T118 -181Z" />
<glyph unicode="*" glyph-name="asterisk" horiz-adv-x="519" d="M169 295L78 353L165 477L32 550L87 639L204 576V713H315V576L430 639L487 550L352 477L441 353L349 295L259 420L169 295Z" />
<glyph unicode="+" glyph-name="plus" horiz-adv-x="620" d="M252 31V258H24V374H252V601H369V374H596V258H369V31H252Z" />
<glyph unicode="," glyph-name="comma" horiz-adv-x="306" d="M85 -141L121 0H50V193H256V12L179 -141H85Z" />
<glyph unicode="-" glyph-name="hyphen" horiz-adv-x="362" d="M27 219V384H335V219H27Z" />
<glyph unicode="." glyph-name="period" horiz-adv-x="306" d="M50 0V194H256V0H50Z" />
<glyph unicode="/" glyph-name="slash" horiz-adv-x="370" d="M-33 -178L230 718H363L103 -178H-33Z" />
<glyph unicode="0" glyph-name="zero" horiz-adv-x="642" d="M323 -12Q281 -12 242 -5T164 18T97 60T50 126T32 217V493Q32 554 57 600T124 673T216 712T319 725Q361 725 401 718T479 692T546 648T592 580T610 488V217Q610 157 584 111T514 39T423 1T323 -12ZM290
160T322 160T370 178T387 220V501Q387 523 369 538T321 553Q291 553 273 538T255 500V217Q255 194 272 177Z" />
<glyph unicode="1" glyph-name="one" horiz-adv-x="538" d="M59 0V146H181V531L61 527L49 671L281 719H389V146H499V0H59Z" />
<glyph unicode="2" glyph-name="two" horiz-adv-x="612" d="M61 0V118L243 325Q254 338 277 363T310 399T333 429T352 462T357 493V504Q357 561 299 561T241 484V462H39V505Q39 611 114 669T313 727T502 665T568 503Q568 480 562 457T543 410T518 369T485 326T451
289T414 252T382 220L338 175V173H575V0H61Z" />
<glyph unicode="3" glyph-name="three" horiz-adv-x="618" d="M294 -12Q36 -12 36 201V226H241V207Q241 178 258 166T312 153Q338 153 353 171T369 220Q369 254 340 268T282 283H245V425H286Q326 425 345 438T364 490Q364 520 347 536T303 552Q244 552 244 502V483H41V508Q41
606 112 665T307 725Q429 725 499 671T570 520Q570 462 542 422T463 365V359Q522 345 556 302T590 200Q590 140 565 97T495 31T401 -2T294 -12Z" />
<glyph unicode="4" glyph-name="four" horiz-adv-x="633" d="M342 0V131H31V287L290 713H531L253 296H342V359L548 506V296H612V131H548V0H342Z" />
<glyph unicode="5" glyph-name="five" horiz-adv-x="613" d="M305 -12Q189 -12 114 36T38 174V225H241V209Q241 186 257 171T309 156Q373 156 373 219V267Q373 293 355 309T306 325Q273 325 247 295L58 317L76 713H537V540H243L239 421Q302 462 391 462Q469 462
527 420T585 288V198Q585 99 502 44T305 -12Z" />
<glyph unicode="6" glyph-name="six" horiz-adv-x="628" d="M314 -12Q199 -12 116 46T32 207V503Q32 607 117 666T323 725Q444 725 515 673T587 526V487H382V508Q382 533 366 546T321 559Q291 559 274 544T256 503V405Q332 451 416 451Q503 451 551 405T600 287V196Q600
129 559 81T454 11T314 -12ZM320 155Q351 155 369 170T388 208V267Q388 295 366 308T318 321Q256 321 256 252V210Q256 185 273 170T320 155Z" />
<glyph unicode="7" glyph-name="seven" horiz-adv-x="616" d="M120 0Q122 130 191 284T355 541H40V713H582V566Q487 481 414 326T341 0H120Z" />
<glyph unicode="8" glyph-name="eight" horiz-adv-x="627" d="M314 -12Q184 -12 108 35T31 188V222Q31 268 54 304T113 358Q82 373 62 408T42 480V520Q42 615 119 670T311 725Q429 725 506 673T584 522V484Q584 443 565 410T515 358Q548 342 572 306T596 229V181Q596
91 516 40T314 -12ZM313 143Q344 143 362 156T380 195V228Q380 257 361 270T312 284Q285 284 266 272T247 238V193Q247 169 265 156T313 143ZM313 427Q344 427 362 440T380 479V512Q380 541 361 554T312 568Q285 568 266 556T247 522V477Q247 453 265 440T313 427Z"
/>
<glyph unicode="9" glyph-name="nine" horiz-adv-x="628" d="M309 -13Q188 -13 117 39T45 186V225H250V204Q250 179 266 166T311 153Q341 153 358 168T376 209V316Q325 261 216 261Q129 261 81 307T32 425V516Q32 615 116 670T318 725Q432 725 516 666T600 505V209Q600
105 515 46T309 -13ZM309 394Q335 394 355 411T376 466V508Q376 533 359 548T312 563Q281 563 263 548T244 510V449Q244 421 264 408T309 394Z" />
<glyph unicode=":" glyph-name="colon" horiz-adv-x="306" d="M50 0V194H256V0H50ZM50 346V540H256V346H50Z" />
<glyph unicode=";" glyph-name="semicolon" horiz-adv-x="306" d="M85 -141L121 0H50V193H256V12L179 -141H85ZM50 346V540H256V346H50Z" />
<glyph unicode="&lt;" glyph-name="less" horiz-adv-x="620" d="M516 50L51 272V361L514 584L566 477L227 317L569 156L516 50Z" />
<glyph unicode="=" glyph-name="equal" horiz-adv-x="620" d="M24 140V256H596V140H24ZM24 361V478H596V361H24Z" />
<glyph unicode="&gt;" glyph-name="greater" horiz-adv-x="620" d="M104 50L51 156L393 317L54 477L106 584L569 361V272L104 50Z" />
<glyph unicode="?" glyph-name="question" horiz-adv-x="573" d="M179 241V265Q179 307 194 335T242 393Q248 398 284 424T335 469T350 508Q350 531 334 545T291 560Q261 560 239 546T217 507V487H34V519Q34 586 73 633T171 702T298 723Q419 723 484 669T550 520Q550
419 456 354Q449 349 429 338T397 318T375 296T364 266V241H179ZM167 0V194H373V0H167Z" />
<glyph unicode="@" glyph-name="at" horiz-adv-x="957" d="M491 -147Q394 -147 330 -128Q202 -89 123 14T44 263Q44 460 182 588T524 717Q625 717 712 679T856 562T913 381Q913 271 840 179T664 65H497L508 118H504Q443 54 366 54Q305 54 270 83T235 170Q235 189
238 207T247 257T258 315T268 366Q280 432 332 473T454 514Q535 514 567 470H568L574 505H743L679 148Q740 173 780 233T821 373Q821 441 795 494T725 578T626 625T509 641Q420 641 349 610T233 524T166 403T142 260Q142 165 190 90T319 -27Q393 -63 487 -63Q572
-63 633 -53T786 -14L808 -87Q667 -147 491 -147ZM456 176Q485 176 503 194T526 240L545 344Q546 348 546 358Q546 378 533 390T497 402Q471 402 454 382T432 335L415 237Q413 229 413 222Q413 202 424 189T456 176Z" />
<glyph unicode="A" glyph-name="A" horiz-adv-x="750" d="M6 0L247 714H508L744 0H519L485 114H248L214 0H6ZM297 279H436L368 510H365L297 279Z" />
<glyph unicode="B" glyph-name="B" horiz-adv-x="716" d="M52 0V713H472Q573 713 625 662T678 535Q678 478 649 430T564 365V362Q621 347 653 302T686 202Q686 119 631 60T475 0H52ZM275 168H392Q423 168 439 186T456 229Q456 252 438 267T388 283H275V168ZM275
438H390Q422 438 438 456T455 500Q455 521 439 535T392 550H275V438Z" />
<glyph unicode="C" glyph-name="C" horiz-adv-x="685" d="M349 -12Q287 -12 232 2T131 47T59 131T32 256V463Q32 528 58 579T129 662T229 709T346 725Q402 725 454 712T552 672T625 598T653 489V445H443V468Q443 508 416 529T352 551Q308 551 283 528T258 460V257Q258
212 282 187T352 162Q389 162 416 183T443 245V268H653V221Q653 172 635 132T587 66T517 22T435 -4T349 -12Z" />
<glyph unicode="D" glyph-name="D" horiz-adv-x="700" d="M50 0V713H367Q499 713 583 653T668 470V259Q668 128 584 64T369 0H50ZM274 174H352Q396 174 419 201T442 264V450Q442 490 416 514T347 538H274V174Z" />
<glyph unicode="E" glyph-name="E" horiz-adv-x="651" d="M50 0V713H605V540H274V442H536V270H274V174H605V0H50Z" />
<glyph unicode="F" glyph-name="F" horiz-adv-x="629" d="M50 0V713H605V540H274V432H536V258H274V0H50Z" />
<glyph unicode="G" glyph-name="G" horiz-adv-x="681" d="M349 -12Q286 -12 232 2T131 47T59 131T32 256V463Q32 528 58 579T129 662T229 709T346 725Q402 725 455 712T554 672T629 598T658 489V459H448V476Q448 516 421 537T357 559Q313 559 286 536T258 468V257Q258
211 282 184T352 156Q443 156 443 236V255H339V400H659V221Q659 160 631 114T557 41T458 1T349 -12Z" />
<glyph unicode="H" glyph-name="H" horiz-adv-x="728" d="M50 0V713H274V456H454V713H678V0H454V263H274V0H50Z" />
<glyph unicode="I" glyph-name="I" horiz-adv-x="324" d="M50 0V713H274V0H50Z" />
<glyph unicode="J" glyph-name="J" horiz-adv-x="666" d="M329 -12Q179 -12 102 44T25 235V265H238V238Q238 160 316 160T394 240V713H618V255Q618 129 541 59T329 -12Z" />
<glyph unicode="K" glyph-name="K" horiz-adv-x="707" d="M50 0V713H274V397L482 713H699L502 421L701 0H458L337 273L274 191V0H50Z" />
<glyph unicode="L" glyph-name="L" horiz-adv-x="625" d="M50 0V713H274V174H605V0H50Z" />
<glyph unicode="M" glyph-name="M" horiz-adv-x="870" d="M50 0V713H332L437 423H440L544 713H820V0H618V433H616L507 110H365L254 433H251V0H50Z" />
<glyph unicode="N" glyph-name="N" horiz-adv-x="754" d="M50 0V713H267L500 393H502V713H704V0H502L254 350H252V0H50Z" />
<glyph unicode="O" glyph-name="O" horiz-adv-x="702" d="M351 -12Q300 -12 255 -4T168 25T97 76T50 155T32 264V447Q32 517 58 571T128 659T228 708T348 725T467 711T569 665T643 578T670 447V265Q670 192 643 137T570 50T468 3T351 -12ZM352 163Q395 163 419
189T444 260V454Q444 500 417 525T350 550Q258 550 258 454V264Q258 163 352 163Z" />
<glyph unicode="P" glyph-name="P" horiz-adv-x="693" d="M50 0V713H405Q530 713 595 645T661 478Q661 374 598 300T405 226H274V0H50ZM274 389H363Q400 389 421 412T443 467T423 522T364 545H274V389Z" />
<glyph unicode="Q" glyph-name="Q" horiz-adv-x="702" d="M571 -133L367 -12H351Q300 -12 255 -4T168 25T97 76T50 155T32 264V447Q32 517 58 571T128 659T228 708T348 725T467 711T569 665T643 578T670 447V265Q670 144 596 72L691 42L571 -133ZM352 163Q395
163 419 189T444 260V454Q444 500 417 525T350 550Q258 550 258 454V264Q258 163 352 163Z" />
<glyph unicode="R" glyph-name="R" horiz-adv-x="703" d="M50 0V713H392Q526 713 593 648T660 486Q660 417 628 360T532 273L682 0H436L321 236H274V0H50ZM274 389H362Q399 389 420 411T442 467Q442 499 422 522T363 545H274V389Z" />
<glyph unicode="S" glyph-name="S" horiz-adv-x="643" d="M321 -12Q221 -12 148 4T6 68L112 224Q208 151 302 151Q385 151 385 192Q385 208 376 218T356 233T323 243L197 278Q121 299 76 350T30 478Q30 581 110 652T320 724Q415 724 474 708T597 654L479 507Q452
529 409 542T331 556Q251 556 251 513Q251 506 253 501T260 491T269 484T283 478T299 473T319 468T340 462L443 433Q531 408 576 357T622 234Q622 170 595 121T523 44T427 2T321 -12Z" />
<glyph unicode="T" glyph-name="T" horiz-adv-x="668" d="M221 0V540H22V713H646V540H447V0H221Z" />
<glyph unicode="U" glyph-name="U" horiz-adv-x="725" d="M357 -13Q207 -13 128 54T48 259V713H272V267Q272 215 299 188T369 161Q410 161 435 189T460 267V713H677V264Q677 131 585 59T357 -13Z" />
<glyph unicode="V" glyph-name="V" horiz-adv-x="692" d="M224 -1L5 713H229L349 232H353L479 713H687L460 -1H224Z" />
<glyph unicode="W" glyph-name="W" horiz-adv-x="985" d="M183 -1L8 713H228L313 342H316L404 713H605L686 342H687L770 713H977L803 -1H591L491 397H487L384 -1H183Z" />
<glyph unicode="X" glyph-name="X" horiz-adv-x="698" d="M1 0L210 369L16 713H255L362 508L466 713H683L488 364L697 0H460L339 223L225 0H1Z" />
<glyph unicode="Y" glyph-name="Y" horiz-adv-x="682" d="M228 0V278L-2 713H227L351 450L470 713H684L453 277V0H228Z" />
<glyph unicode="Z" glyph-name="Z" horiz-adv-x="657" d="M36 0V129L348 540H46V713H619V564L328 174H615V0H36Z" />
<glyph unicode="[" glyph-name="bracketleft" horiz-adv-x="354" d="M77 -184V713H330V623H234V-96H329V-184H77Z" />
<glyph unicode="\" glyph-name="backslash" horiz-adv-x="370" d="M258 -178L-2 718H131L394 -178H258Z" />
<glyph unicode="]" glyph-name="bracketright" horiz-adv-x="354" d="M25 -184V-96H120V623H24V713H277V-184H25Z" />
<glyph unicode="^" glyph-name="asciicircum" horiz-adv-x="572" d="M66 120L218 617H362L505 120H380L286 474L190 120H66Z" />
<glyph unicode="_" glyph-name="underscore" horiz-adv-x="500" d="M0 -165V-28H500V-165H0Z" />
<glyph unicode="`" glyph-name="grave" horiz-adv-x="335" d="M174 593L28 777H215L305 593H174Z" />
<glyph unicode="a" glyph-name="a" horiz-adv-x="604" d="M195 -12Q120 -12 73 27T25 140Q25 193 52 231T125 288T214 315T307 323H353V358Q353 382 336 397T287 413Q252 413 238 396T224 357V345H40V369Q40 453 116 502T305 551Q411 551 486 501T561 352V122Q561
81 570 0H377L371 70H365Q337 24 288 6T195 -12ZM290 128Q311 128 332 145T353 193V227H316Q236 227 236 176Q236 128 290 128Z" />
<glyph unicode="b" glyph-name="b" horiz-adv-x="622" d="M383 -13Q303 -13 253 47H251V0H46V713H254V477H256Q314 552 404 552Q495 552 543 501T592 363V169Q592 91 532 39T383 -13ZM322 127Q349 127 366 146T384 200V330Q384 364 366 382T323 401Q254 401 254
319V196Q254 159 275 143T322 127Z" />
<glyph unicode="c" glyph-name="c" horiz-adv-x="584" d="M300 -13Q250 -13 205 -2T119 34T54 104T30 208V318Q30 378 54 424T118 498T204 538T300 552Q408 552 484 501T560 361V327H359V348Q359 406 303 406Q240 406 240 340V201Q240 133 303 133Q359 133 359
191V212H560V170Q560 82 485 35T300 -13Z" />
<glyph unicode="d" glyph-name="d" horiz-adv-x="621" d="M218 -12Q127 -12 79 38T30 176V370Q30 448 87 500T232 552T366 498H368V713H575V0H372V66H368Q308 -12 218 -12ZM300 139Q328 139 348 158T368 217V343Q368 380 347 396T301 412Q275 412 257 392T238
332V213Q238 179 256 159T300 139Z" />
<glyph unicode="e" glyph-name="e" horiz-adv-x="582" d="M307 -13Q253 -13 206 -1T118 36T54 106T30 210V305Q30 368 54 417T118 494T207 537T307 552Q410 552 481 493T552 326V222H239V207Q239 170 271 154T343 137Q402 137 505 167L538 35Q428 -13 307 -13ZM239
329H361V350Q361 379 344 395T299 412Q272 412 256 395T239 350V329Z" />
<glyph unicode="f" glyph-name="f" horiz-adv-x="410" d="M85 0V383H21V527H85V572Q85 655 140 693T270 731Q347 731 387 718V595Q357 599 330 599Q313 599 303 590T292 564V527H391V383H292V0H85Z" />
<glyph unicode="g" glyph-name="g" horiz-adv-x="627" d="M286 -197Q137 -189 44 -154L103 -11Q190 -41 271 -41Q323 -41 348 -16T373 52V97H371Q318 35 227 35Q135 35 86 85T36 221V366Q36 444 96 498T245 552Q281 552 318 538T379 498H381V540H581V61Q581 -67
500 -131T286 -197ZM279 185T307 185T354 203T373 260V336Q373 373 351 389T303 405Q277 405 261 385T244 326V255Q244 221 261 203Z" />
<glyph unicode="h" glyph-name="h" horiz-adv-x="632" d="M46 0V713H254V464H256Q317 552 426 552Q491 552 541 514T592 399V0H384V317Q384 396 318 396Q292 396 273 373T254 306V0H46Z" />
<glyph unicode="i" glyph-name="i" horiz-adv-x="300" d="M46 0V539H254V0H46ZM46 588V751H254V588H46Z" />
<glyph unicode="j" glyph-name="j" horiz-adv-x="316" d="M89 -192Q53 -192 3 -184V-40Q11 -42 31 -42Q66 -42 66 -4V540H274V-21Q274 -105 220 -148T89 -192ZM66 588V751H274V588H66Z" />
<glyph unicode="k" glyph-name="k" horiz-adv-x="601" d="M46 0V713H254V338L392 539H595L464 350L591 0H369L298 215L254 158V0H46Z" />
<glyph unicode="l" glyph-name="l" horiz-adv-x="347" d="M213 -12Q135 -12 88 25T40 132V713H249V197Q249 178 256 169T288 160Q297 160 327 164V7Q268 -12 213 -12Z" />
<glyph unicode="m" glyph-name="m" horiz-adv-x="970" d="M46 0V539H250V464H252Q313 552 426 552Q477 552 520 532T582 464H585Q646 552 764 552Q829 552 879 514T930 399V0H722V317Q722 396 656 396Q630 396 611 373T592 306V0H384V317Q384 396 318 396Q292
396 273 373T254 306V0H46Z" />
<glyph unicode="n" glyph-name="n" horiz-adv-x="632" d="M46 0V539H250V470H252Q317 552 426 552Q491 552 541 514T592 399V0H384V317Q384 396 318 396Q292 396 273 373T254 306V0H46Z" />
<glyph unicode="o" glyph-name="o" horiz-adv-x="600" d="M300 -12Q259 -12 223 -6T150 16T88 56T46 119T30 209V319Q30 434 108 493T297 552Q349 552 395 540T481 503T546 432T570 323V210Q570 151 546 106T481 37T395 0T300 -12ZM301 135Q360 135 360 201V335Q360
365 344 384T300 404Q270 404 255 384T240 332V199Q240 135 301 135Z" />
<glyph unicode="p" glyph-name="p" horiz-adv-x="622" d="M46 -184V540H250V472H252Q281 510 321 531T404 552Q495 552 543 501T592 363V169Q592 91 532 39T383 -13Q349 -13 313 2T256 43H254V-184H46ZM320 127Q346 127 365 144T384 196V329Q384 363 366 382T323
401Q254 401 254 319V196Q254 159 275 143T320 127Z" />
<glyph unicode="q" glyph-name="q" horiz-adv-x="622" d="M368 -184V65H366Q302 -12 219 -12Q128 -12 79 38T30 175V365Q30 449 86 500T232 552Q319 552 374 490H376V540H576V-184H368ZM300 139Q328 139 348 158T368 217V343Q368 380 347 396T301 412Q275 412
257 392T238 332V213Q238 179 256 159T300 139Z" />
<glyph unicode="r" glyph-name="r" horiz-adv-x="472" d="M46 0V539H250V451H251Q273 490 314 518T404 547Q444 547 466 541V369Q412 377 372 377Q350 377 334 375T297 364T266 336T254 286V0H46Z" />
<glyph unicode="s" glyph-name="s" horiz-adv-x="561" d="M279 -12Q195 -12 138 0T18 50L104 182Q186 124 264 124Q326 124 326 149Q326 173 289 182Q259 187 170 212Q38 250 38 360Q38 440 103 496T278 552Q356 552 404 540T513 496L413 375Q386 393 349 404T284
416Q228 416 228 390Q228 383 232 378T247 369T262 364T279 360L384 337Q458 321 497 279T537 180Q537 131 514 93T451 32T369 -1T279 -12Z" />
<glyph unicode="t" glyph-name="t" horiz-adv-x="432" d="M260 -11Q187 -11 137 24T86 147V383H21V527H86V669H294V527H405V383H294V201Q294 161 337 161Q374 161 401 165V11Q326 -11 260 -11Z" />
<glyph unicode="u" glyph-name="u" horiz-adv-x="644" d="M216 -12Q151 -12 101 25T50 140V539H258V222Q258 143 324 143Q350 143 369 167T388 233V539H596V0H392V81H390Q326 -12 216 -12Z" />
<glyph unicode="v" glyph-name="v" horiz-adv-x="597" d="M195 -1L4 539H226L313 229H318L407 539H593L410 -1H195Z" />
<glyph unicode="w" glyph-name="w" horiz-adv-x="897" d="M174 -1L6 539H217L284 261H290L362 539H560L632 261H637L706 539H893L724 -1H537L453 313H450L363 -1H174Z" />
<glyph unicode="x" glyph-name="x" horiz-adv-x="585" d="M3 1L170 276L10 539H231L310 398L388 539H571L413 277L582 1H360L273 153L188 1H3Z" />
<glyph unicode="y" glyph-name="y" horiz-adv-x="600" d="M172 -190Q129 -190 74 -179V-28Q105 -36 145 -36Q190 -36 201 -7L205 4L9 539H231L320 228H324L415 539H601L405 -25Q347 -190 172 -190Z" />
<glyph unicode="z" glyph-name="z" horiz-adv-x="564" d="M40 0V125L275 389H46V539H524L523 411L294 152H524V0H40Z" />
<glyph unicode="{" glyph-name="braceleft" horiz-adv-x="352" d="M187 -184Q137 -184 107 -152T77 -56V179Q77 217 68 231T32 248V343Q63 349 70 358T77 396V585Q77 648 107 680T187 713H328V623H256Q234 623 234 600V422Q234 373 220 346T172 305V299Q210 284
222 261T234 184V-72Q234 -95 256 -95H328V-184H187Z" />
<glyph unicode="|" glyph-name="bar" horiz-adv-x="315" d="M88 -53V725H227V-53H88Z" />
<glyph unicode="}" glyph-name="braceright" horiz-adv-x="352" d="M24 -184V-95H96Q118 -95 118 -72V184Q118 238 130 261T180 299V305Q146 318 132 345T118 422V600Q118 623 96 623H24V713H165Q215 713 245 681T275 585V396Q275 368 282 359T320 343V248Q293
245 284 231T275 179V-56Q275 -119 245 -151T165 -184H24Z" />
<glyph unicode="~" glyph-name="asciitilde" horiz-adv-x="602" d="M109 220L27 237Q52 398 167 398Q199 398 303 380T440 362Q461 362 473 374T496 414L574 395Q552 236 440 236Q407 236 302 253T164 271Q140 271 129 260T109 220Z" />
</font>
</defs>
</svg>
