<?xml version="1.0" standalone="no"?> <!DOCTYPE svg PUBLIC "-//W3C//DTD SVG 1.0//EN" "http://www.w3.org/TR/2001/REC-SVG-20010904/DTD/svg10.dtd" > <svg xmlns="http://www.w3.org/2000/svg" width="100%" height="100%">
<defs >
<font id="flamathin" horiz-adv-x="403" ><font-face
    font-family="Flama-Thin"
    units-per-em="1000"
    panose-1="2 0 0 0 0 0 0 0 0 0"
    ascent="950"
    descent="-250"
    alphabetic="0" />
<missing-glyph horiz-adv-x="822" d="M235 118L195 158L380 343L195 528L235 568L420 383L605 568L645 528L460 343L645 158L605 118L420 303L235 118ZM55 -18V698H767V-18H55ZM115 42H707V638H115V42Z" />
<glyph unicode=" " glyph-name="space" horiz-adv-x="230" />
<glyph unicode="!" glyph-name="exclam" horiz-adv-x="268" d="M126 182L125 486V713H145V486L144 182H126ZM121 0V80H146V0H121Z" />
<glyph unicode="&quot;" glyph-name="quotedbl" horiz-adv-x="306" d="M83 548L78 637V717H103V637L98 548H83ZM208 548L203 637V717H228V637L223 548H208Z" />
<glyph unicode="#" glyph-name="numbersign" horiz-adv-x="552" d="M91 -6L127 201H26L30 218H130L179 491H74L78 507H182L217 697H232L198 507H415L449 697H465L433 507H532L529 491H429L380 218H483L480 201H378L342 -6H324L359 201H145L110 -6H91ZM148 218H362L413
491H196L148 218Z" />
<glyph unicode="$" glyph-name="dollar" horiz-adv-x="513" d="M243 -44V76Q167 78 117 112T50 207L69 211Q110 94 255 94Q329 94 375 130T421 224Q421 277 396 306T320 352Q301 358 258 370T194 390Q132 409 108 441T83 521Q83 578 127 618T243 659V756H261V659Q380
654 429 565L411 556Q363 640 252 640Q192 640 149 609T105 524Q105 502 108 488T121 458T152 429T209 407L333 369Q442 336 442 228Q442 165 394 122T261 76V-44H243Z" />
<glyph unicode="%" glyph-name="percent" horiz-adv-x="733" d="M178 368Q122 368 93 399T63 484V610Q63 666 95 695T180 724Q233 724 266 696T299 610V477Q299 426 265 397T178 368ZM133 384T180 384T255 411T283 476V616Q283 655 256 682T180 709Q133 709 107
683T80 616V476Q80 435 106 410ZM549 -11Q496 -11 465 17T434 98V223Q434 280 467 312T551 344Q605 344 638 316T671 230V97Q671 46 636 18T549 -11ZM504 4T551 4T626 31T655 96V236Q655 275 627 302T551 330Q504 330 478 303T451 236V96Q451 54 477 29ZM144 0L581
717H601L165 0H144Z" />
<glyph unicode="&amp;" glyph-name="ampersand" horiz-adv-x="724" d="M298 -13Q198 -13 140 45T81 184Q81 213 90 241T119 299T179 354T277 396Q175 498 175 581Q175 604 182 626T208 673T263 712T353 727Q428 727 467 686T507 589Q507 444 311 387L546 133Q588
194 622 294L639 288Q616 210 559 119L674 0H647L545 105Q454 -13 298 -13ZM300 400Q394 430 439 473T485 588Q485 647 444 677T350 708Q278 708 238 672T197 580Q197 517 274 430Q292 410 300 400ZM297 6Q368 6 431 35T533 119L290 382Q199 360 151 307T103 189Q103
110 158 58T297 6Z" />
<glyph unicode="&apos;" glyph-name="quotesingle" horiz-adv-x="181" d="M83 548L78 637V717H103V637L98 548H83Z" />
<glyph unicode="(" glyph-name="parenleft" horiz-adv-x="289" d="M227 -185Q162 -94 131 35T100 276Q100 533 227 736L242 733Q180 617 150 517T119 275Q119 22 244 -183L227 -185Z" />
<glyph unicode=")" glyph-name="parenright" horiz-adv-x="289" d="M62 -185L47 -183Q170 19 170 275Q170 416 140 517T48 733L62 736Q189 533 189 276Q189 165 158 36T62 -185Z" />
<glyph unicode="*" glyph-name="asterisk" horiz-adv-x="397" d="M105 416L88 428L171 544L45 623L55 638L189 556V713H208V556L342 638L352 623L225 544L310 428L294 416L198 545L105 416Z" />
<glyph unicode="+" glyph-name="plus" horiz-adv-x="560" d="M272 83V309H47V325H272V550H290V325H513V309H290V83H272Z" />
<glyph unicode="," glyph-name="comma" horiz-adv-x="177" d="M74 -89L85 0H76V80H101V-1L87 -89H74Z" />
<glyph unicode="-" glyph-name="hyphen" horiz-adv-x="350" d="M56 274V296H294V274H56Z" />
<glyph unicode="." glyph-name="period" horiz-adv-x="177" d="M76 0V80H101V0H76Z" />
<glyph unicode="/" glyph-name="slash" horiz-adv-x="333" d="M28 -107L284 727H301L47 -107H28Z" />
<glyph unicode="0" glyph-name="zero" horiz-adv-x="567" d="M286 -13Q189 -13 128 39T66 181V532Q66 622 129 674T285 727Q381 727 441 675T501 532V182Q501 92 440 40T286 -13ZM195 4T286 4T428 54T480 187V533Q480 606 427 658T284 710Q194 710 140 658T86
528V183Q86 106 140 55Z" />
<glyph unicode="1" glyph-name="one" horiz-adv-x="481" d="M49 0V18H245V692L66 652L63 666L249 713H265V18H447V0H49Z" />
<glyph unicode="2" glyph-name="two" horiz-adv-x="489" d="M69 0V13L227 182Q313 280 358 362T403 545V548Q403 620 361 664T237 708Q166 708 120 673T74 576V545H55V571Q55 646 105 686T241 727Q332 727 378 679T425 551Q425 449 380 361T240 168L100 19V18H450V0H69Z" />
<glyph unicode="3" glyph-name="three" horiz-adv-x="515" d="M262 -13Q166 -13 114 30T61 128V163H81V135Q81 73 135 39T262 5Q339 5 393 54T448 184Q448 237 427 275T372 330T312 355T261 363H183V382H265Q337 382 381 426T426 550Q426 632 379 670T262 709Q191
709 139 676T87 570V547H68V575Q68 643 121 684T263 726Q313 726 350 710T407 666T435 612T444 555Q444 402 315 375V372Q382 357 426 310T470 193Q470 101 414 44T262 -13Z" />
<glyph unicode="4" glyph-name="four" horiz-adv-x="560" d="M369 0V216H44V234L359 713H383L66 234H369V443L389 456V234H506V216H389V0H369Z" />
<glyph unicode="5" glyph-name="five" horiz-adv-x="517" d="M258 -13Q161 -13 111 30T61 129V163H81V135Q81 72 133 39T256 5Q292 5 323 14T384 44T431 109T449 213V222Q449 318 400 365T272 413Q184 413 106 353L82 355L105 714H432V696H121L100 370Q186 431
278 431Q361 431 415 377T470 225V220Q470 103 413 45T258 -13Z" />
<glyph unicode="6" glyph-name="six" horiz-adv-x="530" d="M262 -13Q171 -13 119 42T66 184V536Q66 624 122 675T270 726Q357 726 406 685T456 573V553H438V568Q438 634 392 671T270 709Q185 709 136 660T86 536V329Q116 385 171 415T284 445Q357 445 410 400T464
284V167Q464 82 409 35T262 -13ZM269 5Q351 5 397 49T444 159V271Q444 350 394 388T275 426Q208 426 147 379T86 259V177Q86 108 135 57T269 5Z" />
<glyph unicode="7" glyph-name="seven" horiz-adv-x="489" d="M158 0Q157 199 243 404T425 695H44V713H449V699Q339 585 260 396T180 0H158Z" />
<glyph unicode="8" glyph-name="eight" horiz-adv-x="523" d="M261 -13Q172 -13 116 36T60 164V197Q60 257 100 302T201 366Q140 380 104 423T68 517V551Q68 634 125 680T262 726Q344 726 400 683T456 558V526Q456 476 420 430T319 368Q381 353 422 308T463 197V168Q463
83 407 35T261 -13ZM262 4Q342 4 391 49T441 172V198Q441 275 387 316T262 358Q190 358 136 315T81 195V166Q81 95 134 50T262 4ZM201 373T264 373T380 416T434 528V563Q434 632 382 670T258 708Q193 708 141 667T89 558V527Q89 453 145 413Z" />
<glyph unicode="9" glyph-name="nine" horiz-adv-x="542" d="M260 -12Q173 -12 124 29T74 141V161H92V146Q92 80 138 43T260 5Q345 5 394 54T444 178V389Q415 326 362 298T246 269Q173 269 120 314T66 430V535Q66 621 121 674T268 727T411 672T464 530V178Q464
90 408 39T260 -12ZM255 288Q322 288 383 335T444 455V537Q444 606 395 657T261 709Q180 709 133 660T86 543V443Q86 364 136 326T255 288Z" />
<glyph unicode=":" glyph-name="colon" horiz-adv-x="177" d="M76 0V80H101V0H76ZM76 385V465H101V385H76Z" />
<glyph unicode=";" glyph-name="semicolon" horiz-adv-x="177" d="M74 -89L85 0H76V80H101V-1L87 -89H74ZM76 385V465H101V385H76Z" />
<glyph unicode="&lt;" glyph-name="less" horiz-adv-x="560" d="M483 105L63 309V323L490 516L496 502L85 316L490 119L483 105Z" />
<glyph unicode="=" glyph-name="equal" horiz-adv-x="560" d="M47 225V241H513V225H47ZM47 401V417H513V401H47Z" />
<glyph unicode="&gt;" glyph-name="greater" horiz-adv-x="560" d="M76 105L69 119L474 316L63 502L69 516L496 323V309L76 105Z" />
<glyph unicode="?" glyph-name="question" horiz-adv-x="509" d="M229 182V228Q233 262 249 293T279 339T324 386Q372 434 394 472T416 565Q416 639 373 674T254 709Q193 709 144 676T95 571V548H74V565Q74 644 125 685T258 726Q340 726 388 685T437 566Q438 533
430 504T402 447T368 403T328 361Q293 326 274 297T251 227V182H229ZM227 0V80H252V0H227Z" />
<glyph unicode="@" glyph-name="at" horiz-adv-x="954" d="M489 -154Q412 -154 338 -131Q215 -92 140 6T69 249Q69 441 195 566T519 691Q685 691 794 587T904 333Q904 260 876 200T805 104T712 49T616 29H599L621 152H618Q577 79 525 48T420 16Q354 16 319 46T283
131Q283 150 286 165L318 346Q334 436 391 479T518 522Q574 522 616 489T660 396H662L683 517H703L619 42Q662 42 707 62T793 117T860 211T886 338Q886 478 778 576T518 675Q328 675 207 554T86 250Q86 103 157 11T345 -117Q414 -138 492 -138Q592 -138 677 -114L680
-127Q594 -154 489 -154ZM431 34Q494 34 558 98T638 251L648 313Q652 341 652 354Q652 430 613 467T515 505Q448 505 400 467T339 355L308 172Q305 145 305 130Q305 85 337 60T431 34Z" />
<glyph unicode="A" glyph-name="A" horiz-adv-x="639" d="M44 0L311 717H333L595 0H574L476 269H163L64 0H44ZM169 286H470L322 694H321L169 286Z" />
<glyph unicode="B" glyph-name="B" horiz-adv-x="585" d="M86 0V713H323Q407 713 458 669T509 544Q509 478 467 427T358 368V367Q439 358 484 310T529 192Q529 97 468 49T321 0H86ZM106 18H311Q397 18 452 61T507 191Q507 274 450 316T307 358H106V18ZM106 376H294Q373
376 431 417T489 539Q489 617 440 656T312 695H106V376Z" />
<glyph unicode="C" glyph-name="C" horiz-adv-x="615" d="M324 -13Q209 -13 140 46T70 216V487Q70 589 140 658T324 728Q431 728 495 672T559 538V488H539V529Q539 608 483 658T319 708Q214 708 153 644T91 482V228Q91 126 153 66T324 5Q431 5 485 55T539 185V207H559V175Q559
93 496 40T324 -13Z" />
<glyph unicode="D" glyph-name="D" horiz-adv-x="635" d="M86 0V713H337Q443 713 504 658T565 496V225Q565 121 504 61T337 0H86ZM106 18H333Q439 18 491 78T544 222V488Q544 580 492 637T333 695H106V18Z" />
<glyph unicode="E" glyph-name="E" horiz-adv-x="560" d="M86 0V713H501V695H106V381H420V363H106V18H501V0H86Z" />
<glyph unicode="F" glyph-name="F" horiz-adv-x="531" d="M86 0V713H501V695H106V381H420V363H106V0H86Z" />
<glyph unicode="G" glyph-name="G" horiz-adv-x="651" d="M445 -13T330 -13T146 46T76 216V487Q76 589 146 658T330 728Q437 728 501 672T565 538V488H545V529Q545 608 489 658T325 708Q220 708 159 644T97 482V228Q97 126 159 66T330 5T494 54T551 182V334H341V353H571V175Q571
92 508 40Z" />
<glyph unicode="H" glyph-name="H" horiz-adv-x="664" d="M86 0V713H106V382H556V713H576V0H556V364H106V0H86Z" />
<glyph unicode="I" glyph-name="I" horiz-adv-x="192" d="M86 0V713H106V0H86Z" />
<glyph unicode="J" glyph-name="J" horiz-adv-x="560" d="M260 -13Q163 -13 106 39T48 186V242H66V198Q66 115 114 59T269 3Q359 3 409 57T460 182V713H480V204Q480 104 427 46T260 -13Z" />
<glyph unicode="K" glyph-name="K" horiz-adv-x="578" d="M86 0V713H106V291L520 713H545L272 434L556 0H532L258 419L106 265V0H86Z" />
<glyph unicode="L" glyph-name="L" horiz-adv-x="541" d="M86 0V713H106V18H501V0H86Z" />
<glyph unicode="M" glyph-name="M" horiz-adv-x="763" d="M86 0V713H113L382 284H383L648 713H677V0H656V683H653L390 259H373L110 683H106V0H86Z" />
<glyph unicode="N" glyph-name="N" horiz-adv-x="652" d="M86 0V713H112L546 39H548V713H566V0H547L105 690H104V0H86Z" />
<glyph unicode="O" glyph-name="O" horiz-adv-x="648" d="M324 -13Q212 -13 141 46T70 216V477Q70 592 139 660T324 728Q439 728 508 668T578 497V238Q578 123 509 55T324 -13ZM324 5Q430 5 493 68T557 232V495Q557 594 494 651T319 708Q213 708 152 642T91 471V228Q91
125 153 65T324 5Z" />
<glyph unicode="P" glyph-name="P" horiz-adv-x="575" d="M86 0V713H303Q404 713 461 655T519 510Q519 412 453 356T275 300H106V0H86ZM106 318H263Q374 318 435 366T497 510Q497 589 443 642T302 695H106V318Z" />
<glyph unicode="Q" glyph-name="Q" horiz-adv-x="648" d="M573 -115L385 -7Q356 -13 324 -13Q212 -13 141 46T70 216V477Q70 592 139 660T324 728Q439 728 508 668T578 497V238Q578 147 533 84T410 -1L587 -95L573 -115ZM324 5Q430 5 493 68T557 232V495Q557 594
494 651T319 708Q213 708 152 642T91 471V228Q91 125 153 65T324 5Z" />
<glyph unicode="R" glyph-name="R" horiz-adv-x="594" d="M86 0V713H305Q409 713 469 660T529 514Q529 426 475 370T316 309L557 0H531L291 309H106V0H86ZM106 327H285Q506 327 506 514Q506 600 448 647T285 695H106V327Z" />
<glyph unicode="S" glyph-name="S" horiz-adv-x="564" d="M291 -13Q195 -13 132 31T47 151L67 155Q91 84 149 45T295 5Q384 5 440 52T497 174Q497 246 466 282T373 339L221 388Q80 433 80 558Q80 631 138 679T285 727Q440 727 501 610L484 602Q424 708 290 708Q214
708 159 670T103 562Q103 507 131 469T236 404L387 356Q518 315 518 179Q518 93 458 40T291 -13Z" />
<glyph unicode="T" glyph-name="T" horiz-adv-x="593" d="M287 0V694H24V713H569V694H307V0H287Z" />
<glyph unicode="U" glyph-name="U" horiz-adv-x="653" d="M324 -13Q281 -13 241 -1T163 36T103 108T80 217V713H100V230Q100 168 119 122T173 52T245 16T328 4Q432 4 495 63T554 221V713H572V217Q574 111 506 49T324 -13Z" />
<glyph unicode="V" glyph-name="V" horiz-adv-x="567" d="M270 -4L24 713H45L281 16H282L523 713H543L292 -4H270Z" />
<glyph unicode="W" glyph-name="W" horiz-adv-x="840" d="M221 -4L38 713H59L232 20H233L409 713H434L606 23H607L782 713H802L616 -4H594L421 685H419L245 -4H221Z" />
<glyph unicode="X" glyph-name="X" horiz-adv-x="528" d="M35 0L254 375L60 713H84L267 386L458 713H477L278 372L495 0H473L265 358L55 0H35Z" />
<glyph unicode="Y" glyph-name="Y" horiz-adv-x="552" d="M266 0V308L44 713H69L277 330L485 713H508L286 308V0H266Z" />
<glyph unicode="Z" glyph-name="Z" horiz-adv-x="511" d="M31 0V13L442 697H43V713H464V698L56 18H461V0H31Z" />
<glyph unicode="[" glyph-name="bracketleft" horiz-adv-x="329" d="M130 -191V754H295V736H151V-172H295V-191H130Z" />
<glyph unicode="\" glyph-name="backslash" horiz-adv-x="333" d="M316 -133L54 727H71L335 -133H316Z" />
<glyph unicode="]" glyph-name="bracketright" horiz-adv-x="329" d="M34 -191V-172H178V736H34V754H199V-191H34Z" />
<glyph unicode="^" glyph-name="asciicircum" horiz-adv-x="431" d="M120 202L209 561H232L311 202H289L221 527L143 202H120Z" />
<glyph unicode="_" glyph-name="underscore" horiz-adv-x="500" d="M0 -107V-86H500V-107H0Z" />
<glyph unicode="`" glyph-name="grave" horiz-adv-x="268" d="M136 568L23 713H50L157 568H136Z" />
<glyph unicode="a" glyph-name="a" horiz-adv-x="481" d="M213 -12Q148 -12 103 23T57 123Q57 165 75 195T122 240T180 261T240 268H392V362Q392 484 247 484Q186 484 142 458T97 375V359H78V375Q78 440 127 471T252 502Q323 502 367 471T412 372V134Q412 115
415 61T418 0H399Q395 46 395 98H393Q349 -12 213 -12ZM218 6Q295 6 343 51T392 174V250H249Q79 250 79 123Q79 66 121 36T218 6Z" />
<glyph unicode="b" glyph-name="b" horiz-adv-x="491" d="M266 -13Q210 -13 162 20T100 113H98V0H80V713H100V382H103Q125 442 173 472T275 502Q349 502 392 459T435 349V163Q435 73 385 30T266 -13ZM266 4Q326 4 370 43T415 154V350Q415 408 376 446T267 484Q202
484 151 427T99 283V196Q99 112 148 58T266 4Z" />
<glyph unicode="c" glyph-name="c" horiz-adv-x="448" d="M233 -13Q56 -13 56 181V307Q56 398 102 450T233 502T360 462T402 359V341H383V366Q383 383 377 401T355 440T309 472T235 485Q153 485 115 434T76 303V182Q76 4 234 4Q277 4 308 16T354 49T376 87T383
123V148H402V130Q402 68 360 28T233 -13Z" />
<glyph unicode="d" glyph-name="d" horiz-adv-x="493" d="M216 -13Q142 -13 99 28T56 136V326Q56 416 106 459T225 502Q281 502 328 469T389 376H391V713H411V0H393V123H390Q370 57 319 22T216 -13ZM220 5Q284 5 338 64T392 211V293Q392 377 343 431T225 485Q165
485 121 446T76 335V143Q76 83 111 44T220 5Z" />
<glyph unicode="e" glyph-name="e" horiz-adv-x="473" d="M247 -13Q56 -13 56 183V296Q56 393 108 447T248 502Q331 502 376 452T422 309V251H76V173Q76 95 121 50T250 4Q337 4 396 67L409 56Q352 -13 247 -13ZM76 268H403V313Q403 385 365 435T240 485Q160 485
118 431T76 306V268Z" />
<glyph unicode="f" glyph-name="f" horiz-adv-x="327" d="M148 0V470H40V488H148V593Q148 656 180 691T268 727Q295 727 319 720V701Q299 708 264 708Q221 708 195 681T168 598V488H310V470H168V0H148Z" />
<glyph unicode="g" glyph-name="g" horiz-adv-x="491" d="M220 -204Q128 -204 66 -142L79 -128Q135 -187 220 -187Q297 -187 344 -141T392 -15V123H390Q365 62 318 33T215 4Q141 4 99 47T56 157V335Q56 416 108 459T225 502Q275 502 324 473T391 381H392V489H411V-19Q411
-104 358 -154T220 -204ZM225 22Q292 22 342 74T392 221V305Q392 386 340 435T225 485Q165 485 121 446T76 335V159Q76 100 114 61T225 22Z" />
<glyph unicode="h" glyph-name="h" horiz-adv-x="505" d="M80 0V713H100V374H102Q127 436 177 469T289 502Q357 502 393 463T429 368V0H409V343Q409 484 282 484Q215 484 158 431T100 301V0H80Z" />
<glyph unicode="i" glyph-name="i" horiz-adv-x="180" d="M80 0V489H100V0H80ZM80 609V694H100V609H80Z" />
<glyph unicode="j" glyph-name="j" horiz-adv-x="206" d="M1 -212Q-24 -212 -33 -211V-193Q-22 -194 4 -194Q61 -194 83 -163T106 -75V489H126V-80Q126 -212 1 -212ZM106 609V694H126V609H106Z" />
<glyph unicode="k" glyph-name="k" horiz-adv-x="440" d="M80 0V713H100V201L368 489H394L231 312L415 0H393L215 297L100 176V0H80Z" />
<glyph unicode="l" glyph-name="l" horiz-adv-x="277" d="M186 -4Q136 -4 109 24T82 107V713H102V100Q102 62 125 38T191 14Q222 14 246 20V3Q219 -4 186 -4Z" />
<glyph unicode="m" glyph-name="m" horiz-adv-x="834" d="M80 0V489H98V374H100Q125 436 176 469T289 502Q353 502 389 464T428 374H429Q454 436 505 469T618 502Q686 502 722 463T758 368V0H738V343Q738 484 611 484Q546 484 489 433T429 309V0H409V350Q405 484
282 484Q215 484 158 431T100 301V0H80Z" />
<glyph unicode="n" glyph-name="n" horiz-adv-x="505" d="M80 0V489H98V374H100Q125 436 176 469T289 502Q357 502 393 463T429 368V0H409V343Q409 484 282 484Q215 484 158 431T100 301V0H80Z" />
<glyph unicode="o" glyph-name="o" horiz-adv-x="479" d="M242 -13Q56 -13 56 172V316Q56 407 104 454T241 502Q423 502 423 316V173Q423 81 376 34T242 -13ZM242 4Q328 4 365 48T403 178V317Q403 393 364 439T240 485T116 438T76 312V174Q76 4 242 4Z" />
<glyph unicode="p" glyph-name="p" horiz-adv-x="491" d="M80 -194V489H98V382H101Q123 441 172 471T275 502Q349 502 392 461T435 353V163Q435 73 385 30T266 -13Q210 -13 163 20T102 113H100V-194H80ZM266 4Q326 4 370 43T415 154V346Q415 404 376 444T267 484Q202
484 151 430T99 288V196Q99 112 148 58T266 4Z" />
<glyph unicode="q" glyph-name="q" horiz-adv-x="491" d="M391 -194V113H388Q333 -13 216 -13Q142 -13 99 28T56 136V326Q56 416 106 459T225 502Q281 502 329 469T391 376H393V489H411V-194H391ZM220 5Q284 5 338 64T392 211V293Q392 377 343 431T225 485Q165
485 121 446T76 335V143Q76 84 113 45T220 5Z" />
<glyph unicode="r" glyph-name="r" horiz-adv-x="339" d="M80 0V489H99V363H100Q150 494 297 494Q311 494 327 492V472Q310 474 282 474Q206 474 155 422T100 278V0H80Z" />
<glyph unicode="s" glyph-name="s" horiz-adv-x="434" d="M217 -13Q105 -13 41 45L55 60Q122 6 218 6Q276 6 319 38T363 125Q363 177 335 201T250 238L202 249Q60 277 60 373Q60 426 100 464T217 502Q309 502 360 465L348 450Q290 485 212 485Q155 485 118 454T81
378Q81 333 110 308T204 268L275 251Q384 224 384 135Q384 66 335 27T217 -13Z" />
<glyph unicode="t" glyph-name="t" horiz-adv-x="366" d="M239 -9Q133 -9 133 86V470H25V488H133V646H153V488H324V470H153V94Q153 47 176 28T249 9Q284 9 334 23V6Q294 -9 239 -9Z" />
<glyph unicode="u" glyph-name="u" horiz-adv-x="505" d="M216 -13Q147 -13 112 26T76 128V489H96V137Q96 65 129 35T223 5Q290 5 347 59T405 189V489H425V0H407V115H405Q380 53 329 20T216 -13Z" />
<glyph unicode="v" glyph-name="v" horiz-adv-x="449" d="M210 -2L32 489H54L221 20H222L398 489H417L232 -2H210Z" />
<glyph unicode="w" glyph-name="w" horiz-adv-x="727" d="M189 -2L36 489H58L200 22H201L352 489H378L521 22H522L672 489H691L531 -2H509L365 465H363L211 -2H189Z" />
<glyph unicode="x" glyph-name="x" horiz-adv-x="417" d="M22 0L196 257L38 489H61L211 267L361 489H382L224 257L395 0H374L208 245L43 0H22Z" />
<glyph unicode="y" glyph-name="y" horiz-adv-x="455" d="M63 -205Q34 -205 3 -197V-178Q30 -187 68 -187Q150 -187 182 -102L225 10L36 489H58L233 38H234L402 489H421L205 -91Q167 -205 63 -205Z" />
<glyph unicode="z" glyph-name="z" horiz-adv-x="426" d="M44 0V12L354 472H52V489H379V475L69 15H380V0H44Z" />
<glyph unicode="{" glyph-name="braceleft" horiz-adv-x="319" d="M150 -184Q133 -184 122 -175T111 -149V253Q111 290 67 296V312Q111 321 111 354V678Q111 695 122 704T150 713H276V695H148Q132 695 132 675V350Q132 321 98 306V304Q132 288 132 256V-146Q132
-166 148 -166H276V-184H150Z" />
<glyph unicode="|" glyph-name="bar" horiz-adv-x="324" d="M152 -53V725H172V-53H152Z" />
<glyph unicode="}" glyph-name="braceright" horiz-adv-x="319" d="M43 -184V-166H171Q187 -166 187 -146V256Q187 288 221 304V306Q187 321 187 350V675Q187 695 171 695H43V713H169Q186 713 197 704T208 678V354Q208 321 252 312V296Q208 290 208 253V-149Q208
-166 197 -175T169 -184H43Z" />
<glyph unicode="~" glyph-name="asciitilde" horiz-adv-x="567" d="M64 283L48 285Q52 313 70 332T118 351Q145 351 281 330T447 308Q486 308 503 361L518 357Q510 326 491 308T446 289Q416 289 278 311T115 334Q98 334 86 324T72 307T64 283Z" />
</font>
</defs>
</svg>
