<?xml version="1.0" standalone="no"?> <!DOCTYPE svg PUBLIC "-//W3C//DTD SVG 1.0//EN" "http://www.w3.org/TR/2001/REC-SVG-20010904/DTD/svg10.dtd" > <svg xmlns="http://www.w3.org/2000/svg" width="100%" height="100%">
<defs >
<font id="flamabasic" horiz-adv-x="439" ><font-face
    font-family="Flama-Basic"
    units-per-em="1000"
    panose-1="2 0 0 0 0 0 0 0 0 0"
    ascent="950"
    descent="-250"
    alphabetic="0" />
<missing-glyph horiz-adv-x="822" d="M235 118L195 158L380 343L195 528L235 568L420 383L605 568L645 528L460 343L645 158L605 118L420 303L235 118ZM55 -18V698H767V-18H55ZM115 42H707V638H115V42Z" />
<glyph unicode=" " glyph-name="space" horiz-adv-x="244" />
<glyph unicode="!" glyph-name="exclam" horiz-adv-x="285" d="M115 202L94 490V713H191V490L171 202H115ZM93 0V128H191V0H93Z" />
<glyph unicode="&quot;" glyph-name="quotedbl" horiz-adv-x="394" d="M88 479L73 609V714H158V609L144 479H88ZM250 479L236 609V714H321V609L306 479H250Z" />
<glyph unicode="#" glyph-name="numbersign" horiz-adv-x="578" d="M96 -3L128 189H20L31 248H137L178 474H65L76 531H185L216 708H273L244 531H407L437 708H495L465 531H571L563 474H456L416 248H525L516 189H407L374 -3H316L348 189H186L154 -3H96ZM196 248H358L398
474H235L196 248Z" />
<glyph unicode="$" glyph-name="dollar" horiz-adv-x="546" d="M244 -56V47Q171 53 118 92T46 194L127 225Q166 125 278 125Q334 125 370 149T407 216Q407 244 391 264T357 292T308 309Q302 311 256 323T203 337Q76 371 76 492Q76 561 122 606T244 660V762H316V659Q448
642 486 539L408 508Q369 584 274 584Q229 584 197 561T165 496Q165 465 186 446T255 414L354 387Q421 368 458 331T496 223Q496 154 447 107T316 49V-56H244Z" />
<glyph unicode="%" glyph-name="percent" horiz-adv-x="774" d="M186 345Q127 345 89 376T51 467V602Q51 663 89 694T186 725Q245 725 284 694T324 601V464Q324 407 284 376T186 345ZM186 399Q221 399 239 417T258 463V608Q258 636 240 654T187 673T135 655T117
608V463Q117 399 186 399ZM584 -11Q526 -11 488 19T449 109V244Q449 305 488 337T585 369Q644 369 683 339T723 245V108Q723 51 682 20T584 -11ZM585 43Q620 43 638 61T656 108V251Q656 279 638 298T585 317T533 299T515 251V107Q515 43 585 43ZM126 0L595 717H658L190
0H126Z" />
<glyph unicode="&amp;" glyph-name="ampersand" horiz-adv-x="763" d="M290 -14Q186 -14 125 42T63 185Q63 252 106 309T240 397Q156 485 156 557Q156 626 207 676T370 726Q458 726 509 681T560 571Q560 500 511 450T387 376L541 209Q572 268 590 328L668 317Q649
231 600 147L737 0H609L530 83Q436 -14 290 -14ZM341 427Q469 466 469 569Q469 612 441 635T372 658Q317 658 288 632T258 563Q258 523 315 457Q333 437 341 427ZM310 65Q357 65 402 84T478 139L287 347Q225 327 192 285T159 195Q159 136 200 101T310 65Z" />
<glyph unicode="&apos;" glyph-name="quotesingle" horiz-adv-x="232" d="M88 479L73 609V714H158V609L144 479H88Z" />
<glyph unicode="(" glyph-name="parenleft" horiz-adv-x="311" d="M224 -182Q159 -103 125 30T90 275Q90 390 122 513T224 726L275 724Q217 606 192 507T167 275Q167 32 276 -180L224 -182Z" />
<glyph unicode=")" glyph-name="parenright" horiz-adv-x="311" d="M87 -182L37 -180Q144 31 144 275Q144 408 120 507T37 724L88 726Q156 635 189 513T222 275Q222 165 187 31T87 -182Z" />
<glyph unicode="*" glyph-name="asterisk" horiz-adv-x="425" d="M127 390L80 421L159 534L39 604L67 649L185 583V713H240V583L358 649L386 604L265 534L346 421L299 390L213 511L127 390Z" />
<glyph unicode="+" glyph-name="plus" horiz-adv-x="562" d="M250 60V286H24V348H250V575H313V348H538V286H313V60H250Z" />
<glyph unicode="," glyph-name="comma" horiz-adv-x="235" d="M77 -124L101 2H69V127H167V5L126 -124H77Z" />
<glyph unicode="-" glyph-name="hyphen" horiz-adv-x="359" d="M43 243V322H316V243H43Z" />
<glyph unicode="." glyph-name="period" horiz-adv-x="235" d="M69 0V128H167V0H69Z" />
<glyph unicode="/" glyph-name="slash" horiz-adv-x="344" d="M-13 -157L254 721H325L60 -157H-13Z" />
<glyph unicode="0" glyph-name="zero" horiz-adv-x="587" d="M295 -13Q194 -13 125 40T55 195V514Q55 615 125 670T296 726Q398 726 465 671T532 514V197Q532 99 463 43T295 -13ZM295 66Q360 66 397 104T434 201V517Q434 573 397 610T295 648T192 610T154 513V199Q154
142 191 104T295 66Z" />
<glyph unicode="1" glyph-name="one" horiz-adv-x="505" d="M49 0V71H217V628L61 605L54 672L273 716H310V71H467V0H49Z" />
<glyph unicode="2" glyph-name="two" horiz-adv-x="547" d="M72 0V62L285 308Q335 364 360 417T385 540Q385 589 355 619T265 650Q211 650 178 622T145 544V521H56V547Q56 633 116 680T274 727Q375 727 429 674T484 535Q484 496 473 457T449 389T406 322T359 262T303
199L196 81V80H495V0H72Z" />
<glyph unicode="3" glyph-name="three" horiz-adv-x="560" d="M280 -13Q173 -13 116 35T59 154V183H151V161Q151 113 189 89T284 64Q340 64 377 100T414 199Q414 238 399 265T361 305T318 322T280 327H196V406H276Q334 406 366 436T399 529Q399 589 364 618T280
648Q223 648 190 621T156 540V528H66V553Q66 629 124 677T282 726Q387 726 439 672T491 543Q491 482 463 436T379 374V370Q437 355 476 310T515 199Q515 100 448 44T280 -13Z" />
<glyph unicode="4" glyph-name="four" horiz-adv-x="582" d="M353 0V191H51V265L326 714H431L150 267H353V402L445 460V267H539V191H445V0H353Z" />
<glyph unicode="5" glyph-name="five" horiz-adv-x="555" d="M379 -13T276 -13T116 33T58 147V183H149V162Q149 116 186 91T278 65Q335 65 372 102T410 224V254Q410 316 373 347T281 379Q212 379 157 328L73 341L95 714H471V628H172L160 411Q228 459 317 459Q392
459 450 411T508 274V219Q508 106 444 47Z" />
<glyph unicode="6" glyph-name="six" horiz-adv-x="568" d="M282 -13Q183 -13 120 45T57 195V518Q57 613 123 669T290 726Q388 726 445 680T503 555V531H412V545Q412 594 379 621T288 649Q226 649 191 613T156 521V373Q185 412 232 434T330 456Q409 456 460 412T512
296V180Q512 89 448 38T282 -13ZM226 65T288 65T383 97T417 178V271Q417 327 380 353T293 379T200 343T156 248V191Q156 139 191 102Z" />
<glyph unicode="7" glyph-name="seven" horiz-adv-x="540" d="M136 0Q144 177 217 348T390 627H54V713H504V642Q252 371 241 0H136Z" />
<glyph unicode="8" glyph-name="eight" horiz-adv-x="561" d="M279 -13Q177 -13 115 35T52 172V212Q52 264 82 304T159 364Q114 379 88 417T61 503V538Q61 626 125 676T280 726Q372 726 436 681T500 550Q501 507 500 495Q500 453 472 417T399 365Q446 350 477
309T509 215V176Q509 88 445 38T279 -13ZM280 62Q338 62 375 93T412 181V213Q412 270 373 297T281 325Q226 325 188 298T149 215V178Q149 126 187 94T280 62ZM282 399Q332 399 370 429T408 510V547Q408 600 370 626T278 652Q229 652 192 623T154 544V509Q154 455
192 427T282 399Z" />
<glyph unicode="9" glyph-name="nine" horiz-adv-x="568" d="M274 -12Q176 -12 120 33T63 159V183H154V168Q154 119 187 92T278 64Q340 64 375 100T410 193V341Q385 297 338 276T236 254Q157 254 106 299T54 418V530Q54 621 118 673T284 726Q383 726 445 669T508
520V194Q508 99 441 44T274 -12ZM272 332Q322 332 366 369T410 464V523Q410 575 375 613T278 651T182 617T148 534V443Q148 387 185 360T272 332Z" />
<glyph unicode=":" glyph-name="colon" horiz-adv-x="235" d="M69 0V128H167V0H69ZM69 360V487H167V360H69Z" />
<glyph unicode=";" glyph-name="semicolon" horiz-adv-x="235" d="M77 -124L101 2H69V127H167V5L126 -124H77ZM69 360V487H167V360H69Z" />
<glyph unicode="&lt;" glyph-name="less" horiz-adv-x="562" d="M490 85L41 293V344L491 549L519 493L131 319L518 141L490 85Z" />
<glyph unicode="=" glyph-name="equal" horiz-adv-x="562" d="M24 187V248H538V187H24ZM24 386V448H538V386H24Z" />
<glyph unicode="&gt;" glyph-name="greater" horiz-adv-x="562" d="M73 85L45 141L432 319L43 493L71 549L522 344V293L73 85Z" />
<glyph unicode="?" glyph-name="question" horiz-adv-x="529" d="M209 195V242Q211 283 227 312T276 373Q284 381 305 400T336 431T359 459T379 496T385 536Q385 588 353 618T267 649Q219 649 182 625T144 548V512H60V547Q60 633 122 678T274 724Q368 724 422
676T476 541Q477 484 452 443T381 363Q375 358 358 344T334 321T315 300T299 272T293 241V195H209ZM201 0V128H299V0H201Z" />
<glyph unicode="@" glyph-name="at" horiz-adv-x="959" d="M501 -154Q402 -154 327 -128Q206 -85 133 12T60 256Q60 362 97 448T197 591T344 677T523 707Q679 707 792 614T905 370Q905 286 878 222T807 121T713 66T610 48H551L564 119H561Q534 80 491 58T408 36Q343
36 305 70T266 167Q266 188 270 205L292 336Q307 420 361 468T492 516Q533 516 568 497T615 440H618L631 510H706L636 100Q717 105 777 174T838 374Q838 457 790 522T670 619T517 652Q436 652 366 626T241 552T156 429T124 262Q124 130 192 41T368 -80Q433 -98
512 -98Q619 -98 725 -67L739 -116Q639 -154 501 -154ZM442 104Q490 104 531 140T581 233L597 329Q597 332 598 340T600 352Q600 400 570 424T496 449Q447 449 414 421T371 341L349 207Q346 189 346 183Q346 145 372 125T442 104Z" />
<glyph unicode="A" glyph-name="A" horiz-adv-x="662" d="M21 0L287 714H378L641 0H538L472 189H187L119 0H21ZM215 272H444L331 596H330L215 272Z" />
<glyph unicode="B" glyph-name="B" horiz-adv-x="638" d="M77 0V714H361Q460 714 515 668T571 534Q571 479 541 437T454 375V374Q520 361 556 314T592 201Q592 106 528 53T372 0H77ZM175 84H353Q417 84 455 115T494 206Q494 265 456 294T353 324H175V84ZM175 407H341Q400
407 437 436T475 521T439 603T343 630H175V407Z" />
<glyph unicode="C" glyph-name="C" horiz-adv-x="646" d="M338 -13Q218 -13 139 51T59 229V467Q59 583 137 653T335 723Q445 723 520 664T595 502V471H502V491Q502 559 454 597T333 636Q259 636 208 593T157 470V237Q157 163 208 119T338 75Q409 75 455 113T502
220V233H595V208Q595 105 522 46T338 -13Z" />
<glyph unicode="D" glyph-name="D" horiz-adv-x="670" d="M77 0V713H346Q461 713 536 647T611 467V251Q611 136 534 68T347 0H77ZM175 87H342Q416 87 464 129T513 245V470Q513 540 465 583T339 627H175V87Z" />
<glyph unicode="E" glyph-name="E" horiz-adv-x="605" d="M77 0V714H547V627H175V410H493V324H175V87H550V0H77Z" />
<glyph unicode="F" glyph-name="F" horiz-adv-x="567" d="M77 0V714H536V627H175V406H477V320H175V0H77Z" />
<glyph unicode="G" glyph-name="G" horiz-adv-x="659" d="M338 -13Q218 -13 139 51T59 229V470Q59 586 137 656T334 726Q445 726 520 669T595 511V481H502V500Q502 568 454 603T333 639Q259 639 208 596T157 473V237Q157 163 208 119T338 75Q410 75 457 113T504
219V278H312V366H597V208Q597 104 524 46T338 -13Z" />
<glyph unicode="H" glyph-name="H" horiz-adv-x="686" d="M77 0V713H175V410H511V713H609V0H511V324H175V0H77Z" />
<glyph unicode="I" glyph-name="I" horiz-adv-x="252" d="M77 0V713H175V0H77Z" />
<glyph unicode="J" glyph-name="J" horiz-adv-x="588" d="M392 -12T281 -12T108 44T45 210V260H143V222Q143 76 289 76Q351 76 385 119T420 225V713H518V217Q518 122 455 55Z" />
<glyph unicode="K" glyph-name="K" horiz-adv-x="653" d="M77 0V713H175V354L501 713H620L361 433L641 0H527L296 361L175 237V0H77Z" />
<glyph unicode="L" glyph-name="L" horiz-adv-x="567" d="M77 0V713H175V87H536V0H77Z" />
<glyph unicode="M" glyph-name="M" horiz-adv-x="812" d="M77 0V713H197L407 273H409L614 713H735V0H640V540H638L445 137H367L174 538H171V0H77Z" />
<glyph unicode="N" glyph-name="N" horiz-adv-x="695" d="M77 0V714H174L522 169H524V714H618V0H522L172 550H170V0H77Z" />
<glyph unicode="O" glyph-name="O" horiz-adv-x="672" d="M338 -13Q219 -13 139 51T59 229V467Q59 585 140 655T335 726Q454 726 533 658T613 475V247Q613 129 533 58T338 -13ZM338 75Q412 75 464 118T516 241V479Q516 553 465 596T333 639Q259 639 208 595T157
470V237Q157 163 208 119T338 75Z" />
<glyph unicode="P" glyph-name="P" horiz-adv-x="613" d="M77 0V713H344Q449 713 513 655T578 496Q578 404 516 341T340 277H175V0H77ZM175 360H321Q396 360 438 394T481 496Q481 561 440 595T331 630H175V360Z" />
<glyph unicode="Q" glyph-name="Q" horiz-adv-x="672" d="M562 -101L418 -2Q372 -13 338 -13Q219 -13 139 51T59 229V467Q59 585 140 655T335 726Q454 726 533 658T613 475V247Q613 115 513 42L628 -28L562 -101ZM338 75Q412 75 464 118T516 241V479Q516 553 465
596T333 639Q259 639 208 595T157 470V237Q157 163 208 119T338 75Z" />
<glyph unicode="R" glyph-name="R" horiz-adv-x="634" d="M77 0V713H339Q444 713 509 656T575 497Q575 423 534 367T412 291L609 0H501L311 281H175V0H77ZM175 363H322Q397 363 438 397T479 498Q479 566 437 598T320 631H175V363Z" />
<glyph unicode="S" glyph-name="S" horiz-adv-x="605" d="M304 -12Q203 -12 129 32T30 161L119 195Q140 137 190 106T308 74Q377 74 422 105T468 191Q468 238 441 264T362 306L232 341Q153 363 112 406T70 527Q70 617 137 671T305 726Q394 726 460 691T551 585L466
551Q421 643 303 643Q247 643 207 616T166 535Q166 458 280 426L411 390Q564 350 564 199Q564 105 492 47T304 -12Z" />
<glyph unicode="T" glyph-name="T" horiz-adv-x="595" d="M249 0V629H26V713H569V629H347V0H249Z" />
<glyph unicode="U" glyph-name="U" horiz-adv-x="680" d="M339 -12Q222 -12 147 51T71 237V713H169V252Q169 168 214 123T341 77Q423 77 467 122T511 250V713H609V244Q610 125 536 57T339 -12Z" />
<glyph unicode="V" glyph-name="V" horiz-adv-x="590" d="M245 -4L8 713H109L294 135H295L481 713H583L342 -4H245Z" />
<glyph unicode="W" glyph-name="W" horiz-adv-x="880" d="M204 -4L20 713H121L252 154H253L398 713H484L627 153H629L762 713H860L675 -4H583L441 558H439L297 -4H204Z" />
<glyph unicode="X" glyph-name="X" horiz-adv-x="579" d="M6 0L235 372L25 713H137L291 448L450 713H557L346 370L575 0H461L289 288L115 0H6Z" />
<glyph unicode="Y" glyph-name="Y" horiz-adv-x="591" d="M248 0V293L14 713H122L297 388L470 713H577L343 292V0H248Z" />
<glyph unicode="Z" glyph-name="Z" horiz-adv-x="571" d="M33 0V78L402 629H49V713H526V638L158 87H532V0H33Z" />
<glyph unicode="[" glyph-name="bracketleft" horiz-adv-x="375" d="M136 -193V775H351V724H215V-141H351V-193H136Z" />
<glyph unicode="\" glyph-name="backslash" horiz-adv-x="344" d="M273 -109L16 727H86L345 -109H273Z" />
<glyph unicode="]" glyph-name="bracketright" horiz-adv-x="375" d="M24 -193V-141H160V724H24V775H239V-193H24Z" />
<glyph unicode="^" glyph-name="asciicircum" horiz-adv-x="521" d="M101 147L216 598H313L420 147H340L263 519L179 147H101Z" />
<glyph unicode="_" glyph-name="underscore" horiz-adv-x="500" d="M0 -128V-68H500V-128H0Z" />
<glyph unicode="`" glyph-name="grave" horiz-adv-x="321" d="M177 586L53 751H158L249 586H177Z" />
<glyph unicode="a" glyph-name="a" horiz-adv-x="523" d="M212 -11Q137 -11 89 29T41 138Q41 212 97 252T228 292H369V354Q369 445 256 445Q209 445 178 428T146 376V359H64V373Q64 446 121 481T258 516Q347 516 403 481T459 363V118Q459 34 467 0H378Q377 8 375
35T373 63H371Q341 20 303 5T212 -11ZM236 61Q369 61 369 185V225H242Q130 225 130 143Q130 103 159 82T236 61Z" />
<glyph unicode="b" glyph-name="b" horiz-adv-x="549" d="M301 -13Q255 -13 216 10T160 70H157V0H71V713H161V431H163Q187 474 228 495T313 516Q397 516 449 466T502 329V186Q502 90 444 39T301 -13ZM290 64Q339 64 374 93T410 180V329Q410 378 377 408T288 438Q239
438 200 401T161 301V192Q161 134 198 99T290 64Z" />
<glyph unicode="c" glyph-name="c" horiz-adv-x="503" d="M267 -13Q170 -13 109 41T47 192V300Q47 400 108 457T264 515Q353 515 412 467T471 332V320H383V335Q383 381 351 410T265 439Q209 439 175 405T141 310V190Q141 132 174 98T267 64Q320 64 351 93T383
168V179H471V170Q471 85 414 36T267 -13Z" />
<glyph unicode="d" glyph-name="d" horiz-adv-x="549" d="M236 -13Q152 -13 100 37T47 174V318Q47 415 104 465T245 516Q290 516 329 494T385 434H388V713H478V0H390V78H389Q366 36 322 12T236 -13ZM261 66Q311 66 349 101T388 200V312Q388 370 351 405T258 440Q210
440 174 411T138 324V176Q138 127 172 97T261 66Z" />
<glyph unicode="e" glyph-name="e" horiz-adv-x="521" d="M271 -13Q173 -13 110 40T47 193V297Q47 399 110 457T269 515Q357 515 416 464T475 317V231H141V187Q141 131 178 98T276 64Q349 64 398 129L467 88Q408 -13 271 -13ZM141 294H385V318Q385 374 353 406T266
439Q212 439 177 404T141 311V294Z" />
<glyph unicode="f" glyph-name="f" horiz-adv-x="320" d="M108 0V434H24V505H108V584Q108 655 144 692T248 729Q278 729 305 723V645Q282 649 257 649Q198 649 198 588V505H303V434H198V0H108Z" />
<glyph unicode="g" glyph-name="g" horiz-adv-x="543" d="M247 -202Q185 -202 132 -175T56 -97L140 -64Q180 -129 255 -129Q317 -129 352 -93T387 7V89Q340 6 237 6Q149 6 98 55T47 192V315Q47 410 102 463T238 516Q284 516 326 493T387 430V505H475V22Q475 -73
417 -137T247 -202ZM262 79Q313 79 350 112T387 210V315Q387 372 350 405T259 438Q210 438 175 409T139 322V190Q139 140 172 110T262 79Z" />
<glyph unicode="h" glyph-name="h" horiz-adv-x="551" d="M71 0V714H161V426H164Q189 470 230 493T319 516Q399 516 442 469T486 341V0H395V312Q395 437 291 437Q234 437 198 399T161 293V0H71Z" />
<glyph unicode="i" glyph-name="i" horiz-adv-x="231" d="M71 0V505H161V0H71ZM71 596V712H161V596H71Z" />
<glyph unicode="j" glyph-name="j" horiz-adv-x="249" d="M21 -199Q-1 -199 -19 -197V-119Q3 -121 17 -121Q83 -121 83 -49V505H174V-55Q174 -199 21 -199ZM84 596V712H175V596H84Z" />
<glyph unicode="k" glyph-name="k" horiz-adv-x="513" d="M71 0V714H162V270L374 505H483L306 317L495 0H393L244 254L162 167V0H71Z" />
<glyph unicode="l" glyph-name="l" horiz-adv-x="299" d="M189 -6Q71 -6 71 128V713H162V126Q162 71 220 71Q237 71 275 75V6Q232 -6 189 -6Z" />
<glyph unicode="m" glyph-name="m" horiz-adv-x="865" d="M70 0V505H157V427H159Q212 516 318 516Q421 516 461 424H462Q519 516 630 516Q704 516 750 472T797 350V0H707V312Q707 437 603 437Q549 437 515 399T479 301V0H389V313Q387 437 285 437Q237 437 199
402T160 302V0H70Z" />
<glyph unicode="n" glyph-name="n" horiz-adv-x="551" d="M71 0V505H158V426H160Q186 470 228 493T319 516Q399 516 442 469T486 341V0H395V312Q395 437 291 437Q234 437 198 399T161 293V0H71Z" />
<glyph unicode="o" glyph-name="o" horiz-adv-x="528" d="M266 -13Q170 -13 109 38T47 184V309Q47 406 110 460T263 515Q358 515 420 460T482 311V194Q482 98 419 43T266 -13ZM266 64Q323 64 356 95T390 188V319Q390 373 357 405T263 438Q207 438 173 407T138
315V185Q138 130 172 97T266 64Z" />
<glyph unicode="p" glyph-name="p" horiz-adv-x="549" d="M71 -194V505H158V431H160Q186 473 228 494T313 516Q397 516 449 467T502 330V186Q502 89 445 38T304 -13Q258 -13 220 10T164 70H161V-194H71ZM290 64Q339 64 374 93T410 180V328Q410 377 377 407T288
438Q239 438 200 402T161 303V192Q161 134 198 99T290 64Z" />
<glyph unicode="q" glyph-name="q" horiz-adv-x="549" d="M390 -194V75H388Q365 33 321 10T236 -13Q152 -13 100 37T47 174V318Q47 415 104 465T245 516Q290 516 329 494T386 434H388V506H478V-194H390ZM261 66Q311 66 349 101T388 200V312Q388 370 351 405T258
440Q210 440 174 411T138 324V176Q138 127 172 97T261 66Z" />
<glyph unicode="r" glyph-name="r" horiz-adv-x="386" d="M66 0V505H154V410H156Q182 460 231 487T332 514Q354 514 370 511V427Q354 430 324 430Q251 430 205 388T157 270V0H66Z" />
<glyph unicode="s" glyph-name="s" horiz-adv-x="495" d="M248 -12Q102 -12 35 75L98 124Q155 61 246 61Q293 61 327 82T361 142Q361 178 339 193T260 219L199 231Q58 257 58 361Q58 431 110 474T246 517Q373 517 430 447L366 401Q318 447 243 447Q200 447 174
427T147 374Q147 344 172 330T252 305L327 289Q455 263 455 155Q455 76 393 32T248 -12Z" />
<glyph unicode="t" glyph-name="t" horiz-adv-x="343" d="M230 -9Q172 -9 136 20T99 110V432H18V505H99V661H189V505H319V432H189V133Q189 73 252 73Q284 73 322 81V3Q282 -9 230 -9Z" />
<glyph unicode="u" glyph-name="u" horiz-adv-x="547" d="M233 -11Q152 -11 109 37T65 165V505H156V194Q156 132 183 101T261 69Q317 69 353 107T390 213V505H480V0H393V79H391Q338 -11 233 -11Z" />
<glyph unicode="v" glyph-name="v" horiz-adv-x="481" d="M195 -2L14 505H110L241 114H242L375 505H467L285 -2H195Z" />
<glyph unicode="w" glyph-name="w" horiz-adv-x="758" d="M175 -2L16 505H111L222 115H223L340 505H421L535 116H537L649 505H743L582 -2H493L380 387H378L264 -2H175Z" />
<glyph unicode="x" glyph-name="x" horiz-adv-x="490" d="M15 0L193 263L29 505H134L246 333L358 505H462L297 264L475 0H371L245 191L119 0H15Z" />
<glyph unicode="y" glyph-name="y" horiz-adv-x="491" d="M100 -201Q70 -201 39 -194V-117Q76 -124 99 -124Q155 -124 175 -68L205 12L16 505H114L251 124H253L384 505H476L262 -78Q216 -201 100 -201Z" />
<glyph unicode="z" glyph-name="z" horiz-adv-x="465" d="M33 0V69L309 432H47V505H425V436L148 75H431V0H33Z" />
<glyph unicode="{" glyph-name="braceleft" horiz-adv-x="327" d="M173 -184Q133 -184 110 -159T87 -84V212Q87 244 78 257T43 273V336Q71 341 79 351T87 386V613Q87 662 110 687T173 713H291V655H187Q167 655 167 633V403Q167 328 113 307V303Q145 290 156 270T167
208V-104Q167 -126 187 -126H291V-184H173Z" />
<glyph unicode="|" glyph-name="bar" horiz-adv-x="325" d="M125 -53V725H200V-53H125Z" />
<glyph unicode="}" glyph-name="braceright" horiz-adv-x="327" d="M35 -184V-126H140Q160 -126 160 -104V208Q160 250 171 270T213 303V307Q160 328 160 403V633Q160 655 140 655H35V713H154Q194 713 217 688T240 613V386Q240 361 248 351T284 336V273Q259 270
250 257T240 212V-84Q240 -133 217 -158T154 -184H35Z" />
<glyph unicode="~" glyph-name="asciitilde" horiz-adv-x="562" d="M79 255L26 265Q46 373 124 373Q152 373 282 356T440 339Q445 339 449 340T457 342T464 347T469 352T473 359T477 367T480 376T484 385L536 375Q515 266 440 266Q412 266 280 283T122 300Q106
300 98 291T79 255Z" />
</font>
</defs>
</svg>
