<?xml version="1.0" standalone="no"?> <!DOCTYPE svg PUBLIC "-//W3C//DTD SVG 1.0//EN" "http://www.w3.org/TR/2001/REC-SVG-20010904/DTD/svg10.dtd" > <svg xmlns="http://www.w3.org/2000/svg" width="100%" height="100%">
<defs >
<font id="flamasemicondensedultralight" horiz-adv-x="365" ><font-face
    font-family="FlamaSemicondensed-Ultralight"
    units-per-em="1000"
    panose-1="2 0 0 0 0 0 0 0 0 0"
    ascent="950"
    descent="-250"
    alphabetic="0" />
<missing-glyph horiz-adv-x="822" d="M235 118L195 158L380 343L195 528L235 568L420 383L605 568L645 528L460 343L645 158L605 118L420 303L235 118ZM55 -18V698H767V-18H55ZM115 42H707V638H115V42Z" />
<glyph unicode=" " glyph-name="space" horiz-adv-x="180" />
<glyph unicode="!" glyph-name="exclam" horiz-adv-x="211" d="M95 183L90 470V713H121V470L118 183H95ZM89 0V87H122V0H89Z" />
<glyph unicode="&quot;" glyph-name="quotedbl" horiz-adv-x="262" d="M62 538L56 630V713H88V630L82 538H62ZM182 538L176 630V713H208V630L202 538H182Z" />
<glyph unicode="#" glyph-name="numbersign" horiz-adv-x="491" d="M89 -3L118 205H33L36 234H121L161 497H72L76 524H164L194 715H220L192 524H347L375 715H402L375 524H461L457 497H372L333 234H421L419 205H330L302 -3H272L301 205H147L119 -3H89ZM151 234H304L345
497H190L151 234Z" />
<glyph unicode="$" glyph-name="dollar" horiz-adv-x="449" d="M215 -25V57Q105 63 46 133L66 152Q105 114 141 99T231 84Q295 84 333 119T372 212Q372 263 349 294T275 346Q271 347 223 367T174 389Q120 414 97 447T74 531Q74 587 114 628T215 673V747H242V673Q340
667 392 608L374 589Q338 621 305 634T227 647Q177 647 142 617T106 536Q106 492 125 462T197 412Q198 412 221 402T268 380L292 370Q348 346 375 310T402 213T359 108T242 58V-25H215Z" />
<glyph unicode="%" glyph-name="percent" horiz-adv-x="651" d="M160 369Q108 369 80 398T52 480V616Q52 670 82 698T162 726T242 698T273 616V476Q273 425 241 397T160 369ZM162 397Q198 397 220 420T242 474V623Q242 653 221 675T162 698Q124 698 104 676T83
623V473Q83 439 103 418T162 397ZM130 -4L501 723H533L164 -4H130ZM487 -11Q436 -11 408 16T379 96V230Q379 284 409 315T489 346T568 318T599 237V95Q599 45 568 17T487 -11ZM450 19T488 19T547 41T569 94V243Q569 274 548 296T488 319Q451 319 431 297T410 243V94Q410
60 430 40Z" />
<glyph unicode="&amp;" glyph-name="ampersand" horiz-adv-x="619" d="M260 -13Q169 -13 118 40T66 172Q66 212 80 249T134 323T235 382Q136 499 136 566Q136 591 145 617T172 668T226 709T307 725Q381 725 423 680T465 580Q465 432 277 368L458 140Q495 207 517
298L544 294Q525 207 476 116L569 0H533L460 92Q380 -13 260 -13ZM262 14Q374 14 442 113L249 358Q172 333 136 283T99 170Q99 101 145 58T262 14ZM262 390Q357 425 395 466T434 577Q434 632 395 667T301 702Q237 702 202 663T166 569Q166 535 187 498T251 404Q258
395 262 390Z" />
<glyph unicode="&apos;" glyph-name="quotesingle" horiz-adv-x="143" d="M62 538L56 630V713H88V630L82 538H62Z" />
<glyph unicode="(" glyph-name="parenleft" horiz-adv-x="201" d="M165 -183Q110 -94 83 32T56 270Q56 526 165 720L187 718Q134 591 110 497T85 269Q85 30 188 -179L165 -183Z" />
<glyph unicode=")" glyph-name="parenright" horiz-adv-x="201" d="M35 -183L12 -179Q115 30 115 269Q115 403 91 497T13 718L35 720Q144 526 144 270Q144 159 117 33T35 -183Z" />
<glyph unicode="*" glyph-name="asterisk" horiz-adv-x="329" d="M83 438L60 455L133 559L22 627L36 649L152 579V713H178V579L292 649L307 627L195 559L270 455L247 438L165 553L83 438Z" />
<glyph unicode="+" glyph-name="plus" horiz-adv-x="540" d="M256 131V304H88V332H256V505H284V332H451V304H284V131H256Z" />
<glyph unicode="," glyph-name="comma" horiz-adv-x="165" d="M65 -89L78 1H67V87H99V1L83 -89H65Z" />
<glyph unicode="-" glyph-name="hyphen" horiz-adv-x="257" d="M32 278V307H225V278H32Z" />
<glyph unicode="." glyph-name="period" horiz-adv-x="165" d="M67 0V87H99V0H67Z" />
<glyph unicode="/" glyph-name="slash" horiz-adv-x="291" d="M2 -179L227 718H256L34 -179H2Z" />
<glyph unicode="0" glyph-name="zero" horiz-adv-x="494" d="M248 -11Q164 -11 112 35T60 162V554Q60 634 114 680T249 726Q331 726 382 681T434 556V162Q434 80 382 35T248 -11ZM249 17Q323 17 362 57T402 164V556Q402 618 361 658T248 699Q175 699 134 659T92
553V162Q92 98 134 58T249 17Z" />
<glyph unicode="1" glyph-name="one" horiz-adv-x="304" d="M140 0V679L52 648L49 675L148 714H172V0H140Z" />
<glyph unicode="2" glyph-name="two" horiz-adv-x="425" d="M51 0V22L176 191Q328 382 328 545V556Q327 620 295 658T199 697Q142 697 107 664T71 577V537H42V574Q42 645 87 685T203 726Q279 726 319 680T360 552Q360 449 321 363T201 173L94 31V29H382V0H51Z" />
<glyph unicode="3" glyph-name="three" horiz-adv-x="473" d="M237 -11Q150 -11 106 32T62 136V176H94V134Q94 78 136 48T237 17Q308 17 348 63T389 190Q389 238 374 272T335 324T285 350T233 358H166V387H233Q295 387 334 429T373 548Q373 628 331 663T230 699Q173
699 137 669T100 576V541H70V575Q70 646 113 686T234 726Q320 726 362 677T404 557Q404 494 375 443T287 377V374Q350 364 385 313T421 188Q421 100 370 45T237 -11Z" />
<glyph unicode="4" glyph-name="four" horiz-adv-x="480" d="M316 0V206H44V233L304 713H338L77 234H316V398L347 425V234H441V206H347V0H316Z" />
<glyph unicode="5" glyph-name="five" horiz-adv-x="464" d="M224 -11Q139 -11 97 31T54 131V176H86V134Q86 77 126 47T226 17Q289 17 333 53T378 175V265Q378 419 236 419Q164 419 104 363L71 365L90 713H379V685H117L101 393Q160 447 248 447Q318 447 363 404T409
275V174Q409 85 359 37T224 -11Z" />
<glyph unicode="6" glyph-name="six" horiz-adv-x="475" d="M239 -11Q159 -11 110 38T60 163L61 556Q61 636 110 681T238 727Q315 727 363 690T412 590V547H383V584Q383 636 341 668T237 700Q169 700 131 660T92 561V347Q115 393 162 419T257 445Q323 445 371
406T420 298V150Q420 73 370 31T239 -11ZM245 17Q312 17 350 54T388 143V289Q388 355 348 385T251 415Q189 415 141 372T92 269V157Q92 97 133 57T245 17Z" />
<glyph unicode="7" glyph-name="seven" horiz-adv-x="437" d="M158 0Q158 228 219 415T358 685H53V713H397V692Q324 617 275 486T206 233T188 0H158Z" />
<glyph unicode="8" glyph-name="eight" horiz-adv-x="462" d="M229 -11Q152 -11 104 33T56 148V222Q56 273 87 312T168 368Q120 381 92 419T63 502V569Q63 644 112 684T232 725Q305 725 353 687T401 575V508Q401 463 372 424T292 370Q342 356 374 318T407 223V150Q407
74 358 32T229 -11ZM231 17Q297 17 336 52T376 148V224Q376 286 332 321T231 356Q173 356 130 320T87 223V144Q87 88 128 53T231 17ZM233 380Q286 380 328 416T370 507V582Q370 637 328 667T228 698Q175 698 134 664T93 575V506Q93 448 137 414T233 380Z" />
<glyph unicode="9" glyph-name="nine" horiz-adv-x="475" d="M237 -11Q160 -11 112 26T63 126V169H92V132Q92 80 134 48T238 16Q306 16 344 56T382 155V369Q357 322 312 297T218 271Q151 271 104 307T56 413V566Q56 643 105 685T236 727Q316 727 365 678T414 553L413
160Q413 80 365 35T237 -11ZM224 301Q286 301 334 344T382 447V559Q382 614 340 656T230 699Q163 699 126 663T88 573V423Q88 357 127 329T224 301Z" />
<glyph unicode=":" glyph-name="colon" horiz-adv-x="165" d="M67 0V87H99V0H67ZM67 396V482H99V396H67Z" />
<glyph unicode=";" glyph-name="semicolon" horiz-adv-x="165" d="M65 -89L78 1H67V87H99V1L83 -89H65ZM67 396V482H99V396H67Z" />
<glyph unicode="&lt;" glyph-name="less" horiz-adv-x="540" d="M422 148L100 306V330L427 481L439 457L139 318L434 172L422 148Z" />
<glyph unicode="=" glyph-name="equal" horiz-adv-x="540" d="M88 234V263H451V234H88ZM88 376V404H451V376H88Z" />
<glyph unicode="&gt;" glyph-name="greater" horiz-adv-x="540" d="M117 148L104 173L399 318L100 457L113 481L439 330V306L117 148Z" />
<glyph unicode="?" glyph-name="question" horiz-adv-x="438" d="M192 183V228Q194 263 207 294T232 340T270 388Q309 433 328 469T347 557Q347 623 314 660T219 698Q164 698 129 670T94 577V543H63V565Q63 644 105 684T221 725Q291 725 334 682T378 560Q379 519
364 480T333 420T287 364Q266 338 256 325T235 285T222 232V183H192ZM190 0V87H224V0H190Z" />
<glyph unicode="@" glyph-name="at" horiz-adv-x="890" d="M457 -107Q343 -107 251 -60Q164 -14 116 71T69 275Q69 461 183 582T479 703Q631 703 729 610T827 365Q827 293 802 235T736 140T650 85T559 63H534L550 164H548Q485 52 384 52Q328 52 298 79T267 154Q267
170 270 184Q305 393 305 395Q318 470 367 508T476 546Q522 546 556 521T594 447H595L611 543H642L565 90Q661 93 731 169T801 369Q801 507 708 593T481 680Q311 680 205 565T98 278Q98 165 143 84T268 -39Q351 -83 458 -83Q555 -83 635 -59L642 -81Q559 -107 457
-107ZM393 79Q447 79 500 131T565 255L581 358Q584 375 584 391Q584 452 554 486T476 520Q422 520 383 486T334 390L302 193Q299 169 299 159Q299 79 393 79Z" />
<glyph unicode="A" glyph-name="A" horiz-adv-x="530" d="M32 0L248 716H287L499 0H466L390 259H140L63 0H32ZM147 286H382L266 679H265L147 286Z" />
<glyph unicode="B" glyph-name="B" horiz-adv-x="523" d="M83 0V713H278Q358 713 404 668T451 542Q451 476 415 427T320 370V367Q392 358 432 309T473 193Q473 96 418 48T284 0H83ZM114 29H280Q356 29 398 70T440 195Q440 273 388 313T261 353H114V29ZM114 381H254Q322
381 371 420T420 538Q420 612 380 648T274 685H114V381Z" />
<glyph unicode="C" glyph-name="C" horiz-adv-x="536" d="M279 -11Q179 -11 122 39T64 186V522Q64 611 122 668T279 725Q371 725 423 677T475 559V495H446V544Q446 612 403 654T275 697Q189 697 142 648T95 518V198Q95 105 144 61T279 17Q360 17 403 57T446 162V219H475V158Q475
83 424 36T279 -11Z" />
<glyph unicode="D" glyph-name="D" horiz-adv-x="557" d="M83 0V713H295Q386 713 439 666T493 526V198Q493 105 439 53T294 0H83ZM114 29H288Q376 29 418 74T461 194V519Q461 592 419 638T291 684H114V29Z" />
<glyph unicode="E" glyph-name="E" horiz-adv-x="485" d="M83 0V713H435V684H114V388H370V360H114V29H435V0H83Z" />
<glyph unicode="F" glyph-name="F" horiz-adv-x="467" d="M83 0V713H435V684H114V388H369V360H114V0H83Z" />
<glyph unicode="G" glyph-name="G" horiz-adv-x="560" d="M280 -11Q181 -11 123 40T64 186V517Q64 606 123 665T280 725Q373 725 427 676T481 557V501H451V548Q451 613 405 654T276 695Q190 695 143 643T95 511V191Q95 109 144 64T280 18Q372 18 413 62T455 177V326H285V356H486V168Q486
91 432 40T280 -11Z" />
<glyph unicode="H" glyph-name="H" horiz-adv-x="586" d="M83 0V713H114V386H472V713H503V0H472V357H114V0H83Z" />
<glyph unicode="I" glyph-name="I" horiz-adv-x="197" d="M83 0V713H114V0H83Z" />
<glyph unicode="J" glyph-name="J" horiz-adv-x="498" d="M228 -12Q143 -12 93 35T43 167V248H73V174Q73 105 109 62T231 18Q312 18 349 62T387 170V713H418V187Q418 98 371 43T228 -12Z" />
<glyph unicode="K" glyph-name="K" horiz-adv-x="523" d="M83 0V713H114V311L447 713H483L257 440L491 0H454L234 414L114 272V0H83Z" />
<glyph unicode="L" glyph-name="L" horiz-adv-x="467" d="M83 0V713H114V29H435V0H83Z" />
<glyph unicode="M" glyph-name="M" horiz-adv-x="647" d="M83 0V713H125L323 330H325L521 713H564V0H532V665H530L336 288H309L116 664H113V0H83Z" />
<glyph unicode="N" glyph-name="N" horiz-adv-x="580" d="M83 0V713H118L468 62H470V713H497V0H467L113 666H111V0H83Z" />
<glyph unicode="O" glyph-name="O" horiz-adv-x="561" d="M280 -11Q183 -11 124 41T64 190V509Q64 609 123 667T281 725Q378 725 437 673T497 526V206Q497 105 438 47T280 -11ZM281 20Q367 20 416 69T465 200V524Q465 603 416 648T277 694Q190 694 143 646T96
507V197Q96 116 145 68T281 20Z" />
<glyph unicode="P" glyph-name="P" horiz-adv-x="519" d="M83 0V713H267Q360 713 409 657T459 512Q459 415 403 358T246 301H114V0H83ZM114 329H238Q328 329 377 375T426 510Q426 586 385 635T267 684H114V329Z" />
<glyph unicode="Q" glyph-name="Q" horiz-adv-x="561" d="M491 -85L342 -3Q312 -11 280 -11Q183 -11 124 41T64 190V509Q64 609 123 667T281 725Q378 725 437 673T497 526V206Q497 134 467 84T381 10L508 -52L491 -85ZM281 20Q367 20 416 69T465 200V524Q465 603
416 648T277 694Q190 694 143 646T96 507V197Q96 116 145 68T281 20Z" />
<glyph unicode="R" glyph-name="R" horiz-adv-x="534" d="M83 0V713H269Q363 713 414 660T466 517Q466 433 423 380T295 319L489 0H452L262 315H114V0H83ZM114 342H255Q434 342 434 514Q434 592 393 638T264 685H114V342Z" />
<glyph unicode="S" glyph-name="S" horiz-adv-x="483" d="M235 -11Q115 -11 35 64L55 88Q99 51 139 35T237 19Q307 19 349 62T392 170Q392 236 358 272T264 340L182 382Q55 444 55 552Q55 628 107 677T241 726Q353 726 417 665L399 643Q324 698 234 698Q173 698
130 660T87 557Q87 463 201 409L280 369Q350 333 387 287T424 173Q424 93 373 41T235 -11Z" />
<glyph unicode="T" glyph-name="T" horiz-adv-x="493" d="M232 0V684H21V713H472V684H263V0H232Z" />
<glyph unicode="U" glyph-name="U" horiz-adv-x="578" d="M288 -12Q202 -12 141 37T79 187V713H110V199Q110 103 162 60T291 17Q375 17 423 65T469 193V713H498V190Q499 97 442 43T288 -12Z" />
<glyph unicode="V" glyph-name="V" horiz-adv-x="500" d="M233 -2L28 713H60L249 38H250L442 713H473L266 -2H233Z" />
<glyph unicode="W" glyph-name="W" horiz-adv-x="732" d="M191 -2L36 713H68L205 49H207L349 713H386L525 51H527L665 713H696L541 -2H508L367 669H365L223 -2H191Z" />
<glyph unicode="X" glyph-name="X" horiz-adv-x="453" d="M24 0L208 370L41 713H75L227 396L383 713H414L244 370L430 0H395L226 344L56 0H24Z" />
<glyph unicode="Y" glyph-name="Y" horiz-adv-x="471" d="M220 0V311L34 713H65L238 345L406 713H438L251 310V0H220Z" />
<glyph unicode="Z" glyph-name="Z" horiz-adv-x="466" d="M49 0V24L381 687H60V714H416V692L84 29H413V0H49Z" />
<glyph unicode="[" glyph-name="bracketleft" horiz-adv-x="237" d="M59 -176V713H215V688H88V-150H215V-176H59Z" />
<glyph unicode="\" glyph-name="backslash" horiz-adv-x="291" d="M252 -179L30 718H59L284 -179H252Z" />
<glyph unicode="]" glyph-name="bracketright" horiz-adv-x="237" d="M22 -176V-150H149V688H22V713H179V-176H22Z" />
<glyph unicode="^" glyph-name="asciicircum" horiz-adv-x="378" d="M99 211L178 534H209L278 211H249L193 486Q131 214 130 211H99Z" />
<glyph unicode="_" glyph-name="underscore" horiz-adv-x="461" d="M0 -66V-39H461V-66H0Z" />
<glyph unicode="`" glyph-name="grave" horiz-adv-x="241" d="M129 572L27 713H66L157 572H129Z" />
<glyph unicode="a" glyph-name="a" horiz-adv-x="440" d="M185 -11Q129 -11 91 26T52 131Q52 209 101 246T217 284H335V388Q335 486 220 486Q171 486 134 464T97 396V363H69V395Q69 452 113 482T226 512Q289 512 327 483T366 394V131Q366 111 368 57T371 0H342Q339
57 339 88H337Q316 36 274 13T185 -11ZM190 15Q250 15 292 56T335 161V258H228Q85 258 85 134Q85 76 116 46T190 15Z" />
<glyph unicode="b" glyph-name="b" horiz-adv-x="457" d="M250 -11Q203 -11 163 16T111 90H109V0H83V713H113V412H116Q135 461 175 486T259 512Q324 512 360 474T397 378V140Q397 64 354 27T250 -11ZM251 15Q303 15 334 46T366 137V374Q366 422 337 453T252 485Q199
485 156 436T113 315V182Q113 112 152 64T251 15Z" />
<glyph unicode="c" glyph-name="c" horiz-adv-x="421" d="M218 -11Q139 -11 100 33T60 161V340Q60 421 101 466T216 512Q290 512 327 476T365 383V360H337V385Q337 422 308 454T214 486T120 445T90 339V160Q90 14 219 14Q337 14 337 117V145H365V120Q365 -11 218 -11Z" />
<glyph unicode="d" glyph-name="d" horiz-adv-x="455" d="M195 -11Q132 -11 96 26T60 120V360Q60 435 102 473T204 512Q250 512 289 487T340 413H342V713H373V0H347L346 100H343Q320 40 280 15T195 -11ZM200 16Q258 16 300 65T343 196V317Q343 387 302 437T206
487Q156 487 123 458T90 362V130Q90 77 116 47T200 16Z" />
<glyph unicode="e" glyph-name="e" horiz-adv-x="432" d="M232 -11Q150 -11 105 32T60 165V330Q60 416 105 464T226 512Q299 512 338 467T378 341V251H91V162Q91 16 234 16Q300 16 362 56L374 35Q316 -11 232 -11ZM91 277H349V345Q349 404 319 444T219 485Q155
485 123 442T91 341V277Z" />
<glyph unicode="f" glyph-name="f" horiz-adv-x="293" d="M123 0V473H36V500H123V609Q123 664 152 695T231 727Q254 727 278 721V692Q260 698 229 698Q195 698 175 677T154 612V500H266V473H154V0H123Z" />
<glyph unicode="g" glyph-name="g" horiz-adv-x="455" d="M202 -188Q116 -188 62 -147L78 -123Q135 -160 203 -160Q267 -160 305 -124T343 -20V102H342Q322 51 282 28T196 4Q132 4 96 42T60 141V363Q60 435 104 473T205 512Q247 512 288 489T344 416H345L347 501H373V-20Q373
-101 327 -144T202 -188ZM206 32Q263 32 303 78T343 202V332Q343 399 302 442T206 486Q158 486 124 453T90 362V146Q90 32 206 32Z" />
<glyph unicode="h" glyph-name="h" horiz-adv-x="470" d="M83 0V714H113V407H115Q137 459 178 485T270 512Q327 512 359 478T392 394V0H361V377Q361 485 259 485Q204 485 159 436T113 323V0H83Z" />
<glyph unicode="i" glyph-name="i" horiz-adv-x="195" d="M83 0V500H113V0H83ZM83 604V694H113V604H83Z" />
<glyph unicode="j" glyph-name="j" horiz-adv-x="210" d="M20 -189Q7 -189 -15 -187V-158Q1 -160 15 -160Q60 -160 78 -136T96 -67V500H127V-74Q127 -189 20 -189ZM96 604V694H127V604H96Z" />
<glyph unicode="k" glyph-name="k" horiz-adv-x="404" d="M83 0V714H113V226L331 500H368L227 326L380 0H348L206 302L113 190V0H83Z" />
<glyph unicode="l" glyph-name="l" horiz-adv-x="259" d="M173 -4Q130 -4 107 20T83 92V713H114V90Q114 26 179 26Q209 26 227 31V3Q204 -4 173 -4Z" />
<glyph unicode="m" glyph-name="m" horiz-adv-x="749" d="M83 0V500H110V406H111Q133 458 176 485T270 512Q323 512 354 482T390 406H391Q413 458 456 485T550 512Q607 512 638 478T670 394V0H639V377Q639 485 537 485Q484 485 439 440T392 336V0H361V382Q358
485 259 485Q204 485 159 438T113 328V0H83Z" />
<glyph unicode="n" glyph-name="n" horiz-adv-x="470" d="M83 0V500H110V408H111Q133 459 176 485T270 512Q327 512 359 478T392 394V0H361V377Q361 485 259 485Q204 485 159 438T113 328V0H83Z" />
<glyph unicode="o" glyph-name="o" horiz-adv-x="443" d="M222 -11Q144 -11 102 35T60 164V335Q60 417 103 464T221 512Q298 512 340 466T383 337V168Q383 81 341 35T222 -11ZM224 16Q352 16 352 170V340Q352 405 320 445T220 486T121 444T90 335V169Q90 16 224 16Z" />
<glyph unicode="p" glyph-name="p" horiz-adv-x="457" d="M83 -176V500H110V412H112Q131 461 171 486T255 512Q320 512 358 475T397 381V146Q397 68 358 29T250 -11Q205 -11 166 15T115 88H113V-176H83ZM258 15Q305 15 335 46T366 137V370Q366 419 337 452T252
485Q193 485 153 436T113 313V186Q113 113 152 64T258 15Z" />
<glyph unicode="q" glyph-name="q" horiz-adv-x="455" d="M342 -176V91H340Q292 -12 196 -12Q133 -12 97 25T60 122V360Q60 434 102 473T204 512Q251 512 292 486T346 410H348L350 500H373V-176H342ZM200 16Q253 16 298 64T343 182V319Q343 389 301 437T204 486Q156
486 123 454T90 363V132Q90 82 117 49T200 16Z" />
<glyph unicode="r" glyph-name="r" horiz-adv-x="318" d="M83 0V500H110V409H111Q139 467 177 486T268 505Q281 505 295 503V473Q280 475 257 475Q195 475 155 436T113 323V0H83Z" />
<glyph unicode="s" glyph-name="s" horiz-adv-x="387" d="M194 -11Q97 -11 38 59L58 78Q114 15 195 15Q244 15 280 44T316 119Q316 165 294 192T222 239L168 261Q113 283 89 314T64 390T100 473T202 512Q241 512 277 500T333 467L316 445Q265 486 201 486Q155
486 125 460T94 393Q94 352 114 329T187 284L242 261Q346 218 346 125Q346 63 301 26T194 -11Z" />
<glyph unicode="t" glyph-name="t" horiz-adv-x="325" d="M219 -8Q121 -8 121 76V474H33V500H121V657H151V500H288V474H151V86Q151 51 169 36T226 21Q249 21 292 34V6Q255 -8 219 -8Z" />
<glyph unicode="u" glyph-name="u" horiz-adv-x="471" d="M200 -12Q143 -12 111 22T79 105V500H110V119Q110 62 136 39T212 16Q268 16 313 62T358 171V500H389V0H364L362 92H360Q338 42 295 15T200 -12Z" />
<glyph unicode="v" glyph-name="v" horiz-adv-x="372" d="M167 -2L24 500H57L184 40H185L319 500H348L199 -2H167Z" />
<glyph unicode="w" glyph-name="w" horiz-adv-x="633" d="M161 -2L32 500H65L176 44H178L300 500H337L453 44H455L571 500H601L468 -2H436L319 465H316L192 -2H161Z" />
<glyph unicode="x" glyph-name="x" horiz-adv-x="366" d="M17 0L165 259L30 500H66L186 279L307 500H339L204 260L349 0H315L183 240L49 0H17Z" />
<glyph unicode="y" glyph-name="y" horiz-adv-x="382" d="M61 -192Q31 -192 5 -183L15 -156Q45 -163 63 -163Q94 -163 112 -144T147 -75L177 21L26 500H59L193 63H194L328 500H358L181 -67Q146 -192 61 -192Z" />
<glyph unicode="z" glyph-name="z" horiz-adv-x="374" d="M40 0V20L297 474H46V500H330V477L77 25H331V0H40Z" />
<glyph unicode="{" glyph-name="braceleft" horiz-adv-x="250" d="M125 -176Q105 -176 93 -165T81 -134V231Q81 270 42 274V301Q81 308 81 343V668Q81 689 93 700T127 712H237V688H127Q111 688 111 665V341Q111 305 77 291V288Q111 273 111 235V-128Q111 -151
127 -151H237V-176H125Z" />
<glyph unicode="|" glyph-name="bar" horiz-adv-x="227" d="M100 -51V713H127V-51H100Z" />
<glyph unicode="}" glyph-name="braceright" horiz-adv-x="250" d="M12 -176V-151H123Q139 -151 139 -128V235Q139 273 172 288V291Q139 305 139 341V667Q139 690 123 690H12V714H123Q168 714 168 670V343Q168 308 207 301V274Q168 270 168 231V-134Q168 -176
123 -176H12Z" />
<glyph unicode="~" glyph-name="asciitilde" horiz-adv-x="540" d="M113 272L88 276Q92 305 109 324T153 344Q176 344 269 327T384 310Q413 310 425 354L452 348Q445 316 428 297T384 278Q363 278 269 295T151 313Q139 313 131 306T120 292T113 272Z" />
</font>
</defs>
</svg>
