<?xml version="1.0" standalone="no"?> <!DOCTYPE svg PUBLIC "-//W3C//DTD SVG 1.0//EN" "http://www.w3.org/TR/2001/REC-SVG-20010904/DTD/svg10.dtd" > <svg xmlns="http://www.w3.org/2000/svg" width="100%" height="100%">
<defs >
<font id="flamabook" horiz-adv-x="431" ><font-face
    font-family="Flama-Book"
    units-per-em="1000"
    panose-1="2 0 0 0 0 0 0 0 0 0"
    ascent="950"
    descent="-250"
    alphabetic="0" />
<missing-glyph horiz-adv-x="822" d="M235 118L195 158L380 343L195 528L235 568L420 383L605 568L645 528L460 343L645 158L605 118L420 303L235 118ZM55 -18V698H767V-18H55ZM115 42H707V638H115V42Z" />
<glyph unicode=" " glyph-name="space" horiz-adv-x="241" />
<glyph unicode="!" glyph-name="exclam" horiz-adv-x="281" d="M118 198L101 489V713H181V489L165 198H118ZM99 0V117H181V0H99Z" />
<glyph unicode="&quot;" glyph-name="quotedbl" horiz-adv-x="374" d="M87 495L74 615V715H146V615L134 495H87ZM241 495L229 615V715H300V615L288 495H241Z" />
<glyph unicode="#" glyph-name="numbersign" horiz-adv-x="572" d="M94 -4L127 192H21L30 241H135L177 478H66L76 526H184L216 706H263L233 526H408L439 706H487L457 526H561L554 478H449L407 241H515L507 192H400L366 -4H317L350 192H176L143 -4H94ZM184 241H358L401
478H225L184 241Z" />
<glyph unicode="$" glyph-name="dollar" horiz-adv-x="538" d="M245 -50V54Q171 59 119 97T48 197L115 222Q154 118 274 118Q334 118 373 145T412 218Q412 261 386 283T312 319Q302 322 257 334T202 350Q138 368 109 404T79 499Q79 565 125 609T245 660V761H304V659Q433
646 474 545L410 519Q370 597 270 597Q222 597 187 572T152 503Q152 469 173 448T246 413L351 383Q415 365 450 328T485 224T436 110T304 56V-50H245Z" />
<glyph unicode="%" glyph-name="percent" horiz-adv-x="764" d="M184 351Q126 351 90 382T54 471V604Q54 664 91 694T185 725Q243 725 280 695T318 603V467Q318 412 279 382T184 351ZM185 396Q222 396 243 416T264 466V610Q264 640 244 661T186 682T129 662T109
610V466Q109 433 128 415T185 396ZM576 -11Q519 -11 483 19T446 107V239Q446 300 483 331T577 363Q635 363 673 333T711 242V106Q711 50 672 20T576 -11ZM539 34T577 34T635 54T656 105V248Q656 278 636 299T577 320Q540 320 520 300T500 248V105Q500 72 519 53ZM130
0L592 717H645L184 0H130Z" />
<glyph unicode="&amp;" glyph-name="ampersand" horiz-adv-x="754" d="M295 -14Q191 -14 130 43T68 186Q68 252 112 310T251 397Q162 488 162 563Q162 628 211 677T369 727Q453 727 501 683T550 575Q550 504 501 455T371 380L546 191Q580 252 600 320L664 311Q644
227 593 141L725 0H620L536 88Q442 -14 295 -14ZM334 421Q404 442 440 478T477 574Q477 620 445 645T370 670Q311 670 279 641T247 567Q247 523 308 451Q326 431 334 421ZM310 50Q364 50 413 72T494 134L290 356Q221 335 185 290T149 194Q149 130 194 90T310 50Z"
/>
<glyph unicode="&apos;" glyph-name="quotesingle" horiz-adv-x="221" d="M87 495L74 615V715H146V615L134 495H87Z" />
<glyph unicode="(" glyph-name="parenleft" horiz-adv-x="306" d="M225 -183Q160 -102 126 31T92 276Q92 392 124 513T225 729L267 726Q209 610 183 510T156 275Q156 28 269 -181L225 -183Z" />
<glyph unicode=")" glyph-name="parenright" horiz-adv-x="306" d="M81 -183L39 -181Q150 28 150 275Q150 410 124 510T40 726L82 729Q149 635 181 513T214 276Q214 165 180 32T81 -183Z" />
<glyph unicode="*" glyph-name="asterisk" horiz-adv-x="419" d="M122 396L82 423L162 537L41 609L64 647L186 577V713H233V577L355 647L378 609L256 537L338 423L298 396L210 519L122 396Z" />
<glyph unicode="+" glyph-name="plus" horiz-adv-x="561" d="M255 68V292H31V343H255V567H308V343H530V292H308V68H255Z" />
<glyph unicode="," glyph-name="comma" horiz-adv-x="222" d="M77 -116L98 2H71V117H152V4L117 -116H77Z" />
<glyph unicode="-" glyph-name="hyphen" horiz-adv-x="357" d="M46 250V316H311V250H46Z" />
<glyph unicode="." glyph-name="period" horiz-adv-x="222" d="M71 0V117H152V0H71Z" />
<glyph unicode="/" glyph-name="slash" horiz-adv-x="342" d="M-3 -145L261 723H320L57 -145H-3Z" />
<glyph unicode="0" glyph-name="zero" horiz-adv-x="583" d="M293 -13Q193 -13 126 40T58 192V518Q58 616 126 671T294 726Q394 726 459 672T525 518V194Q525 98 458 43T293 -13ZM222 52T293 52T404 93T445 198V521Q445 581 404 621T293 662Q222 662 181 621T139
517V196Q139 134 180 93Z" />
<glyph unicode="1" glyph-name="one" horiz-adv-x="500" d="M49 0V59H223V643L62 616L56 671L268 716H300V59H463V0H49Z" />
<glyph unicode="2" glyph-name="two" horiz-adv-x="534" d="M72 0V51L272 280Q330 346 359 406T389 542Q389 596 356 629T259 663Q201 663 165 633T129 551V527H56V553Q56 636 114 681T267 727Q365 727 418 676T471 539Q471 489 458 444T416 353T361 275T289 192L175
67V66H485V0H72Z" />
<glyph unicode="3" glyph-name="three" horiz-adv-x="550" d="M276 -13Q172 -13 116 34T60 148V179H135V155Q135 104 177 78T279 51Q340 51 381 90T422 196Q422 238 406 268T364 311T317 329T276 335H193V401H274Q335 401 370 434T405 534Q405 599 367 630T276
662Q216 662 179 633T141 547V532H67V558Q67 632 124 679T278 726Q381 726 431 672T481 546Q481 484 453 437T365 374V371Q425 356 465 311T505 198Q505 100 440 44T276 -13Z" />
<glyph unicode="4" glyph-name="four" horiz-adv-x="577" d="M358 0V197H55V258L335 714H421L137 260H358V405L434 460V260H533V197H434V0H358Z" />
<glyph unicode="5" glyph-name="five" horiz-adv-x="547" d="M374 -13T272 -13T115 33T59 143V179H134V156Q134 107 174 80T273 52Q335 52 377 91T419 222V247Q419 316 379 351T279 387Q206 387 146 334L75 344L97 714H462V643H161L147 402Q219 453 308 453Q385
453 442 404T500 263V219Q500 106 437 47Z" />
<glyph unicode="6" glyph-name="six" horiz-adv-x="560" d="M278 -13Q181 -13 120 44T59 193V522Q59 616 123 671T286 726Q381 726 437 681T493 559V536H418V550Q418 603 382 633T284 663Q216 663 178 624T140 525V363Q169 406 218 430T320 454Q397 454 449 410T501
293V177Q501 88 439 38T278 -13ZM284 52Q350 52 386 86T423 174V271Q423 333 383 361T289 390T188 351T140 251V188Q140 132 178 92T284 52Z" />
<glyph unicode="7" glyph-name="seven" horiz-adv-x="529" d="M146 0Q155 183 226 357T400 642H56V713H496V656Q249 392 232 0H146Z" />
<glyph unicode="8" glyph-name="eight" horiz-adv-x="553" d="M275 -13Q176 -13 115 36T54 170V209Q54 262 86 304T169 365Q120 380 92 419T63 506V541Q63 628 125 677T276 726Q366 726 428 682T490 552Q491 519 490 502Q490 458 460 420T381 366Q432 351 465
309T499 211V174Q499 87 436 37T275 -13ZM276 49Q339 49 379 83T419 179V210Q419 271 376 302T277 333Q218 333 176 302T134 211V175Q134 119 175 84T276 49ZM225 393T278 393T372 426T414 514V551Q414 607 373 636T274 665Q221 665 181 633T140 547V513Q140 455
182 424Z" />
<glyph unicode="9" glyph-name="nine" horiz-adv-x="562" d="M271 -12Q175 -12 121 33T66 155V178H140V163Q140 110 176 81T274 51Q342 51 380 90T418 190V352Q392 303 344 281T238 258Q161 258 109 303T57 421V531Q57 621 119 673T281 726Q378 726 438 670T498
522V191Q498 98 434 43T271 -12ZM268 322Q322 322 370 362T418 462V526Q418 582 380 623T274 664Q208 664 171 627T134 536V443Q134 382 174 352T268 322Z" />
<glyph unicode=":" glyph-name="colon" horiz-adv-x="222" d="M71 0V117H152V0H71ZM71 366V482H152V366H71Z" />
<glyph unicode=";" glyph-name="semicolon" horiz-adv-x="222" d="M77 -116L98 2H71V117H152V4L117 -116H77ZM71 366V482H152V366H71Z" />
<glyph unicode="&lt;" glyph-name="less" horiz-adv-x="563" d="M489 90L46 297V339L491 542L514 495L121 319L512 136L489 90Z" />
<glyph unicode="=" glyph-name="equal" horiz-adv-x="563" d="M30 196V247H533V196H30ZM30 390V441H533V390H30Z" />
<glyph unicode="&gt;" glyph-name="greater" horiz-adv-x="563" d="M75 90L52 136L443 319L49 495L72 542L518 339V297L75 90Z" />
<glyph unicode="?" glyph-name="question" horiz-adv-x="525" d="M214 192V239Q217 282 234 311T287 376Q292 381 311 400T337 425T357 449T376 478T387 507T392 543Q392 600 357 631T264 663Q213 663 173 637T133 553V520H63V551Q63 636 123 680T271 725Q361
725 414 678T467 547Q468 489 442 447T369 363Q364 358 350 346T330 327T314 309T299 288T290 266T284 238V192H214ZM207 0V117H289V0H207Z" />
<glyph unicode="@" glyph-name="at" horiz-adv-x="958" d="M498 -156Q405 -156 330 -130Q208 -88 135 9T62 253Q63 459 194 580T522 702Q681 702 793 606T905 360Q905 279 878 216T807 116T713 61T612 42H562L578 126H575Q545 79 499 55T411 30Q346 30 308 63T270
157Q270 178 274 194L298 337Q313 423 368 469T498 516Q543 516 580 494T626 428H629L644 510H705L632 85Q717 89 783 161T850 364Q850 492 750 574T517 656Q344 656 230 548T115 258Q115 122 184 33T363 -90Q429 -109 508 -109Q613 -109 714 -80L725 -120Q629
-156 498 -156ZM440 86Q491 86 537 129T595 236L609 324Q612 339 612 351Q612 406 580 433T501 461Q447 461 411 431T364 343L339 198Q337 184 337 169Q337 130 364 108T440 86Z" />
<glyph unicode="A" glyph-name="A" horiz-adv-x="657" d="M26 0L293 715H368L631 0H546L473 207H182L107 0H26ZM205 275H450L329 618H328L205 275Z" />
<glyph unicode="B" glyph-name="B" horiz-adv-x="626" d="M79 0V714H353Q448 714 502 669T557 537Q557 479 525 435T433 374V373Q502 361 540 313T578 199Q578 104 515 52T361 0H79ZM160 69H344Q412 69 454 103T497 203Q497 268 455 300T343 332H160V69ZM160 400H331Q395
400 436 432T478 525T440 615T336 645H160V400Z" />
<glyph unicode="C" glyph-name="C" horiz-adv-x="639" d="M335 -13Q216 -13 139 50T62 226V473Q62 586 138 655T333 725Q442 725 514 667T587 511V476H510V501Q510 572 460 612T330 653Q249 653 196 605T142 474V235Q142 155 196 107T335 59Q414 59 462 100T510
212V227H587V201Q587 102 516 45T335 -13Z" />
<glyph unicode="D" glyph-name="D" horiz-adv-x="662" d="M79 0V713H344Q457 713 529 649T601 474V245Q601 133 528 67T345 0H79ZM160 72H340Q421 72 470 118T520 240V474Q520 549 471 595T338 642H160V72Z" />
<glyph unicode="E" glyph-name="E" horiz-adv-x="595" d="M79 0V714H537V642H160V404H477V333H160V72H539V0H79Z" />
<glyph unicode="F" glyph-name="F" horiz-adv-x="559" d="M79 0V714H528V642H160V401H464V330H160V0H79Z" />
<glyph unicode="G" glyph-name="G" horiz-adv-x="658" d="M337 -13Q218 -13 141 50T64 226V474Q64 587 140 657T334 727Q444 727 516 670T589 517V483H512V507Q512 577 463 616T332 655T198 607T144 475V235Q144 155 198 107T337 59Q417 59 466 99T515 211V291H319V363H592V201Q592
102 521 45T337 -13Z" />
<glyph unicode="H" glyph-name="H" horiz-adv-x="681" d="M79 0V713H160V404H521V713H602V0H521V333H160V0H79Z" />
<glyph unicode="I" glyph-name="I" horiz-adv-x="239" d="M79 0V713H160V0H79Z" />
<glyph unicode="J" glyph-name="J" horiz-adv-x="582" d="M276 -12Q169 -12 108 43T46 205V256H126V217Q126 186 133 160T157 111T206 74T285 60Q353 60 391 106T429 216V713H510V214Q510 118 449 53T276 -12Z" />
<glyph unicode="K" glyph-name="K" horiz-adv-x="636" d="M79 0V714H160V340L505 714H603L341 433L622 0H528L288 374L160 243V0H79Z" />
<glyph unicode="L" glyph-name="L" horiz-adv-x="561" d="M79 0V714H160V72H528V0H79Z" />
<glyph unicode="M" glyph-name="M" horiz-adv-x="801" d="M79 0V713H178L402 276H403L622 713H722V0H644V572H642L433 165H369L160 571H157V0H79Z" />
<glyph unicode="N" glyph-name="N" horiz-adv-x="685" d="M79 0V714H160L528 140H530V714H607V0H528L157 582H155V0H79Z" />
<glyph unicode="O" glyph-name="O" horiz-adv-x="667" d="M335 -13Q218 -13 140 50T62 226V469Q62 587 140 657T333 727Q451 727 528 661T605 480V245Q605 128 527 58T335 -13ZM335 59Q416 59 470 107T525 239V483Q525 563 472 609T330 655Q249 655 196 606T142
470V235Q142 154 196 107T335 59Z" />
<glyph unicode="P" glyph-name="P" horiz-adv-x="605" d="M79 0V713H335Q439 713 502 655T565 499Q565 406 502 344T326 282H160V0H79ZM160 351H308Q392 351 438 388T485 499Q485 567 441 606T325 645H160V351Z" />
<glyph unicode="Q" glyph-name="Q" horiz-adv-x="667" d="M566 -98L424 0Q378 -13 335 -13Q218 -13 140 50T62 226V469Q62 587 140 657T333 727Q451 727 528 661T605 480V245Q605 110 502 37L620 -36L566 -98ZM335 59Q416 59 470 107T525 239V483Q525 563 472
609T330 655Q249 655 196 606T142 470V235Q142 154 196 107T335 59Z" />
<glyph unicode="R" glyph-name="R" horiz-adv-x="625" d="M79 0V714H332Q436 714 500 657T565 501Q565 424 521 368T391 295L598 0H508L307 288H160V0H79ZM160 355H314Q485 355 485 502Q485 574 439 610T312 646H160V355Z" />
<glyph unicode="S" glyph-name="S" horiz-adv-x="596" d="M301 -12Q201 -12 130 32T34 159L108 186Q129 126 180 93T305 59T426 93T475 187Q475 240 447 268T365 314L230 352Q152 374 112 417T72 534Q72 621 137 673T301 726Q387 726 450 693T540 591L470 563Q422
658 300 658Q240 658 196 628T152 541Q152 456 270 421L406 383Q554 342 554 195Q554 103 484 46T301 -12Z" />
<glyph unicode="T" glyph-name="T" horiz-adv-x="595" d="M258 0V644H26V713H569V644H338V0H258Z" />
<glyph unicode="U" glyph-name="U" horiz-adv-x="674" d="M336 -12Q224 -12 149 49T73 233V713H154V247Q154 155 204 108T338 61Q426 61 474 109T521 244V713H601V238Q602 122 529 55T336 -12Z" />
<glyph unicode="V" glyph-name="V" horiz-adv-x="585" d="M251 -4L12 713H95L291 108H292L491 713H574L331 -4H251Z" />
<glyph unicode="W" glyph-name="W" horiz-adv-x="871" d="M208 -4L24 713H107L248 124H249L401 713H473L622 124H624L767 713H847L662 -4H586L437 587H435L286 -4H208Z" />
<glyph unicode="X" glyph-name="X" horiz-adv-x="568" d="M13 0L239 373L33 713H125L286 434L452 713H539L331 371L557 0H464L284 304L102 0H13Z" />
<glyph unicode="Y" glyph-name="Y" horiz-adv-x="582" d="M252 0V297L21 713H110L293 375L474 713H562L330 296V0H252Z" />
<glyph unicode="Z" glyph-name="Z" horiz-adv-x="558" d="M33 0V64L411 645H48V714H512V652L135 72H516V0H33Z" />
<glyph unicode="[" glyph-name="bracketleft" horiz-adv-x="363" d="M134 -191V765H334V720H199V-145H334V-191H134Z" />
<glyph unicode="\" glyph-name="backslash" horiz-adv-x="342" d="M285 -121L27 726H84L344 -121H285Z" />
<glyph unicode="]" glyph-name="bracketright" horiz-adv-x="363" d="M29 -191V-145H164V720H29V765H229V-191H29Z" />
<glyph unicode="^" glyph-name="asciicircum" horiz-adv-x="500" d="M106 160L215 590H294L394 160H328L253 521L171 160H106Z" />
<glyph unicode="_" glyph-name="underscore" horiz-adv-x="500" d="M0 -123V-72H500V-123H0Z" />
<glyph unicode="`" glyph-name="grave" horiz-adv-x="309" d="M167 582L46 742H133L228 582H167Z" />
<glyph unicode="a" glyph-name="a" horiz-adv-x="514" d="M212 -11Q139 -11 92 28T45 135Q45 210 101 248T231 286H374V356Q374 454 254 454Q204 454 170 435T135 376V359H67V374Q67 445 122 479T257 513Q342 513 395 479T449 365V122Q449 47 456 0H383Q382 7
381 21T379 51T378 71H376Q326 -11 212 -11ZM232 48Q304 48 339 84T374 183V231H244Q119 231 119 139Q119 95 151 72T232 48Z" />
<glyph unicode="b" glyph-name="b" horiz-adv-x="536" d="M293 -13Q246 -13 205 12T147 80H144V0H73V713H147V420H150Q174 467 217 490T305 513Q386 513 436 465T487 334V181Q487 86 431 37T293 -13ZM285 51Q336 51 373 82T411 174V334Q411 385 376 417T283 449Q231
449 189 407T147 297V193Q147 130 187 91T285 51Z" />
<glyph unicode="c" glyph-name="c" horiz-adv-x="490" d="M259 -13Q164 -13 107 40T49 190V302Q49 400 106 456T257 512Q345 512 400 465T455 338V325H383V342Q383 387 350 418T258 450Q197 450 162 412T126 309V188Q126 125 160 88T259 51Q318 51 350 82T383
158V172H455V161Q455 81 401 34T259 -13Z" />
<glyph unicode="d" glyph-name="d" horiz-adv-x="537" d="M232 -13Q150 -13 100 35T49 166V320Q49 415 104 464T241 513Q289 513 329 488T386 421H389V713H463V0H391V88H389Q365 39 320 13T232 -13ZM253 52Q306 52 347 93T389 203V308Q389 372 349 411T251 450Q200
450 162 419T124 327V169Q124 118 159 85T253 52Z" />
<glyph unicode="e" glyph-name="e" horiz-adv-x="510" d="M265 -13Q168 -13 109 39T49 191V297Q49 398 109 455T264 512Q351 512 407 461T463 315V236H126V184Q126 123 165 87T270 51Q346 51 397 115L454 81Q394 -13 265 -13ZM126 288H389V317Q389 376 355 413T260
450Q200 450 163 411T126 310V288Z" />
<glyph unicode="f" glyph-name="f" horiz-adv-x="322" d="M117 0V442H28V501H117V587Q117 656 152 692T253 729Q282 729 308 723V658Q287 663 259 663Q191 663 191 591V501H305V442H191V0H117Z" />
<glyph unicode="g" glyph-name="g" horiz-adv-x="532" d="M242 -204Q183 -204 134 -180T59 -109L127 -80Q171 -144 248 -144Q313 -144 351 -105T389 1V97Q341 6 233 6Q148 6 99 53T50 184V320Q50 412 104 462T236 513Q283 513 327 489T389 419V502H461V11Q461
-82 404 -143T242 -204ZM254 66Q308 66 348 103T389 213V313Q389 375 348 412T252 449Q201 449 164 418T126 325V183Q126 131 160 99T254 66Z" />
<glyph unicode="h" glyph-name="h" horiz-adv-x="541" d="M73 0V714H147V415H150Q175 462 218 487T312 513Q390 513 431 468T473 347V0H398V319Q398 448 289 448Q230 448 189 407T147 296V0H73Z" />
<glyph unicode="i" glyph-name="i" horiz-adv-x="220" d="M73 0V502H147V0H73ZM73 604V713H147V604H73Z" />
<glyph unicode="j" glyph-name="j" horiz-adv-x="240" d="M17 -202Q-4 -202 -22 -200V-136Q0 -138 14 -138Q88 -138 88 -55V502H163V-61Q163 -202 17 -202ZM89 604V713H164V604H89Z" />
<glyph unicode="k" glyph-name="k" horiz-adv-x="497" d="M73 0V714H148V255L373 502H463L289 316L477 0H393L238 264L148 169V0H73Z" />
<glyph unicode="l" glyph-name="l" horiz-adv-x="294" d="M189 -6Q74 -6 74 123V714H149V120Q149 92 165 75T214 58Q224 58 269 63V6Q232 -6 189 -6Z" />
<glyph unicode="m" glyph-name="m" horiz-adv-x="858" d="M72 0V502H144V415H146Q199 513 312 513Q419 513 454 413H455Q482 461 527 487T627 513Q700 513 744 470T788 354V0H714V319Q714 448 605 448Q549 448 509 407T468 304V0H394V321Q391 448 285 448Q233
448 190 409T147 303V0H72Z" />
<glyph unicode="n" glyph-name="n" horiz-adv-x="541" d="M73 0V502H145V415H147Q173 463 216 488T312 513Q390 513 431 468T473 347V0H398V319Q398 448 289 448Q230 448 189 407T147 296V0H73Z" />
<glyph unicode="o" glyph-name="o" horiz-adv-x="517" d="M261 -13Q166 -13 108 37T49 181V311Q49 406 109 459T258 512Q353 512 411 459T469 312V189Q469 94 410 41T261 -13ZM261 51Q324 51 358 85T393 186V319Q393 378 359 413T258 449Q195 449 160 414T124
315V183Q124 122 160 87T261 51Z" />
<glyph unicode="p" glyph-name="p" horiz-adv-x="536" d="M73 -194V502H145V420H147Q172 466 216 489T305 513Q386 513 436 465T487 335V181Q487 86 432 37T296 -13Q248 -13 207 12T150 80H147V-194H73ZM285 51Q336 51 373 82T411 174V332Q411 383 376 416T283
449Q231 449 189 409T147 300V193Q147 130 187 91T285 51Z" />
<glyph unicode="q" glyph-name="q" horiz-adv-x="536" d="M390 -194V84H388Q363 36 319 12T232 -13Q150 -13 100 35T49 166V320Q49 415 104 464T241 513Q289 513 330 488T387 421H389V502H463V-194H390ZM253 52Q306 52 347 93T389 203V308Q389 372 349 411T251
450Q200 450 162 419T124 327V169Q124 118 159 85T253 52Z" />
<glyph unicode="r" glyph-name="r" horiz-adv-x="376" d="M69 0V502H142V401H144Q172 457 221 483T324 510Q344 510 361 507V437Q344 440 315 440Q241 440 193 397T144 274V0H69Z" />
<glyph unicode="s" glyph-name="s" horiz-adv-x="481" d="M241 -12Q102 -12 37 68L88 110Q148 48 240 48Q289 48 325 72T362 138Q362 178 338 195T258 223L200 235Q59 263 59 364Q59 430 108 472T239 514Q359 514 414 451L363 412Q313 456 235 456Q189 456 161
434T132 375Q132 341 158 325T241 297L316 281Q439 254 439 151Q439 74 380 31T241 -12Z" />
<glyph unicode="t" glyph-name="t" horiz-adv-x="348" d="M232 -9Q177 -9 142 18T107 105V441H20V501H107V658H181V501H320V441H181V124Q181 88 198 74T252 59Q282 59 325 68V4Q285 -9 232 -9Z" />
<glyph unicode="u" glyph-name="u" horiz-adv-x="538" d="M229 -12Q151 -12 110 34T68 155V502H143V183Q143 55 253 55Q312 55 353 96T394 207V502H468V0H396V87H394Q368 39 325 14T229 -12Z" />
<glyph unicode="v" glyph-name="v" horiz-adv-x="474" d="M199 -2L18 502H98L237 93H238L380 502H456L273 -2H199Z" />
<glyph unicode="w" glyph-name="w" horiz-adv-x="751" d="M178 -2L21 502H99L217 94H218L343 502H412L532 95H534L654 502H732L571 -2H497L377 405H375L252 -2H178Z" />
<glyph unicode="x" glyph-name="x" horiz-adv-x="474" d="M17 0L194 262L31 502H118L238 318L359 502H444L281 263L457 0H372L237 203L102 0H17Z" />
<glyph unicode="y" glyph-name="y" horiz-adv-x="483" d="M91 -203Q62 -203 30 -196V-132Q64 -140 92 -140Q153 -140 176 -77L210 12L21 502H102L247 105H249L388 502H464L248 -85Q206 -203 91 -203Z" />
<glyph unicode="z" glyph-name="z" horiz-adv-x="456" d="M36 0V56L319 441H48V502H415V445L130 62H420V0H36Z" />
<glyph unicode="{" glyph-name="braceleft" horiz-adv-x="325" d="M168 -184Q133 -184 113 -163T93 -100V222Q93 250 83 263T49 279V331Q76 335 84 345T93 379V629Q93 670 113 691T168 713H288V665H178Q159 665 159 643V391Q159 326 110 307V303Q138 292 148 274T159
219V-114Q159 -136 178 -136H288V-184H168Z" />
<glyph unicode="|" glyph-name="bar" horiz-adv-x="325" d="M132 -53V725H194V-53H132Z" />
<glyph unicode="}" glyph-name="braceright" horiz-adv-x="325" d="M37 -184V-136H147Q167 -136 167 -114V219Q167 256 177 274T215 303V307Q167 326 167 391V643Q167 665 147 665H37V713H158Q193 713 213 692T233 629V379Q233 356 241 346T277 331V279Q252 276
243 264T233 222V-100Q233 -141 213 -162T158 -184H37Z" />
<glyph unicode="~" glyph-name="asciitilde" horiz-adv-x="563" d="M76 262L31 270Q49 368 123 368Q150 368 282 350T442 332Q462 332 471 343T489 380L532 371Q513 272 442 272Q414 272 280 290T121 308Q108 308 100 302T87 288T76 262Z" />
</font>
</defs>
</svg>
